<?xml version="1.0" standalone="no"?>
<!DOCTYPE svg PUBLIC "-//W3C//DTD SVG 1.1//EN" "http://www.w3.org/Graphics/SVG/1.1/DTD/svg11.dtd" >
<svg xmlns="http://www.w3.org/2000/svg" xmlns:xlink="http://www.w3.org/1999/xlink" version="1.1">
<metadata>
Created by FontForge 20161116 at Sun Mar 24 23:21:14 2013
 By Jimmy Wärting
Copyright (c) 2012 by Mostafa EL Abasiry. All rights reserved.
</metadata>
<defs>
<font id="Aqlaam-Regular" horiz-adv-x="429" >
  <font-face 
    font-family="Aqlaam"
    font-weight="400"
    font-stretch="normal"
    units-per-em="1200"
    panose-1="0 0 5 0 0 0 0 0 0 0"
    ascent="960"
    descent="-240"
    bbox="-1 -544 992 1082"
    underline-thickness="50"
    underline-position="-750"
    unicode-range="U+0020-FEFC"
  />
<missing-glyph horiz-adv-x="250" 
 />
    <glyph glyph-name="lam_alefar" unicode="&#xfedf;&#xfe8e;" horiz-adv-x="529" arabic-form="isolated" 
d="M354 356v246c0 27 22 50 50 50s50 -23 50 -50v-410v-3c0 -104 -85 -189 -190 -189c-104 0 -189 85 -189 189v3v1v409c0 27 22 50 50 50s50 -23 50 -50v-246c27 14 57 23 89 23c33 0 63 -9 90 -23zM264 279c-49 0 -89 -41 -89 -90s40 -89 89 -89c50 0 90 40 90 89
s-40 90 -90 90z" />
    <glyph glyph-name="lam_alefar.fina" unicode="&#xfee0;&#xfe8e;" horiz-adv-x="544" arabic-form="final" 
d="M354 356v246c0 28 22 50 50 50c27 0 50 -22 50 -50v-452c0 -28 22 -50 50 -50h41v-100h-41c-45 0 -84 19 -112 50c-34 -31 -79 -50 -128 -50c-104 0 -189 85 -189 189v4v409c0 28 22 50 50 50c27 0 50 -22 50 -50v-246c26 15 57 23 89 23c33 0 63 -8 90 -23zM264 279
c-49 0 -89 -40 -89 -90c0 -49 40 -89 89 -89c50 0 90 40 90 89c0 50 -40 90 -90 90z" />
    <glyph glyph-name="lam_alefHamzaabovear" unicode="&#xfedf;&#xfe84;" horiz-adv-x="518" arabic-form="isolated" 
d="M99 868l122 44v-111c0 -13 -12 -25 -25 -25c-14 0 -25 12 -25 25v40l-53 -19c-4 -2 -7 -6 -8 -10s0 -9 3 -13l36 -47c28 -2 56 -11 80 -27c11 -8 14 -24 6 -35c-5 -7 -12 -11 -20 -11c-5 0 -10 1 -14 4c-19 13 -41 19 -63 19h-2c-20 -1 -40 -7 -57 -19
c-11 -8 -27 -5 -34 7c-8 11 -5 27 6 35c13 8 27 15 41 19l-19 25c-12 17 -17 37 -12 55c5 19 18 35 37 44h1zM369 356v246c0 27 22 50 50 50s50 -23 50 -50v-410v-3c0 -104 -85 -189 -190 -189c-104 0 -189 85 -189 189v3v1v409c0 27 22 50 50 50s50 -23 50 -50v-246
c27 14 57 23 89 23c33 0 63 -9 90 -23zM279 279c-49 0 -89 -41 -89 -90s40 -89 89 -89c50 0 90 40 90 89s-40 90 -90 90z" />
    <glyph glyph-name="lam_alefHamzaabovear.fina" unicode="&#xfee0;&#xfe84;" horiz-adv-x="558" arabic-form="final" 
d="M99 868l121 44v-110c0 -14 -11 -25 -25 -25s-25 11 -25 25v39l-52 -19c-5 -2 -8 -6 -9 -10s1 -8 4 -13l36 -47c28 -2 56 -11 79 -27c12 -8 15 -24 7 -35c-5 -7 -13 -11 -21 -11c-5 0 -9 1 -14 4c-19 13 -40 19 -62 19h-3c-19 -1 -39 -7 -56 -19c-11 -7 -27 -4 -35 7
c-7 11 -4 27 7 35c13 8 26 15 41 19l-19 25c-12 17 -17 37 -12 56c5 18 18 34 37 43h1zM369 356v246c0 28 22 50 50 50c27 0 50 -22 50 -50v-452c0 -28 22 -50 50 -50h41v-100h-41c-45 0 -84 19 -112 50c-34 -31 -79 -50 -128 -50c-104 0 -189 85 -189 189v413
c0 28 22 50 50 50c27 0 50 -22 50 -50v-246c26 15 57 23 89 23c33 0 63 -8 90 -23zM279 279c-49 0 -89 -40 -89 -90c0 -49 40 -89 89 -89c50 0 90 40 90 89c0 50 -40 90 -90 90z" />
    <glyph glyph-name="lam_alefHamzabelowar" unicode="&#xfedf;&#xfe88;" horiz-adv-x="529" arabic-form="isolated" 
d="M354 356v246c0 27 22 50 50 50s50 -23 50 -50v-410v-3c0 -104 -85 -189 -190 -189c-104 0 -189 85 -189 189v4v409c0 27 22 50 50 50s50 -23 50 -50v-246c27 14 57 23 89 23c33 0 63 -9 90 -23zM264 279c-49 0 -89 -41 -89 -90s40 -89 89 -89c50 0 90 40 90 89
s-40 90 -90 90zM274 -55l122 43v-110c0 -14 -11 -25 -25 -25s-25 11 -25 25v39l-52 -19c-5 -2 -8 -5 -9 -9s0 -9 4 -14l35 -47c29 -2 56 -11 80 -27c11 -8 14 -23 7 -35c-5 -7 -13 -11 -21 -11c-5 0 -10 2 -14 5c-19 12 -41 19 -62 18h-3c-20 -1 -39 -7 -56 -18
c-12 -8 -27 -5 -35 6c-8 12 -5 27 7 35c12 9 26 15 40 20l-18 24c-13 17 -17 37 -13 56c5 19 19 34 37 43z" />
    <glyph glyph-name="lam_alefHamzabelowar.fina" unicode="&#xfee0;&#xfe88;" horiz-adv-x="544" arabic-form="final" 
d="M354 356v246c0 28 22 50 50 50c27 0 50 -22 50 -50v-452c0 -28 22 -50 50 -50h41v-100h-41c-45 0 -84 19 -112 50c-34 -31 -79 -50 -128 -50c-104 0 -189 85 -189 189v4v409c0 28 22 50 50 50c27 0 50 -22 50 -50v-246c26 15 57 23 89 23c33 0 63 -8 90 -23zM264 279
c-49 0 -89 -40 -89 -90c0 -49 40 -89 89 -89c50 0 90 40 90 89c0 50 -40 90 -90 90zM274 -55l121 43v-110c0 -14 -11 -25 -25 -25c-13 0 -25 11 -25 25v39l-52 -19c-4 -2 -7 -5 -8 -9s0 -9 3 -13l36 -48c28 -1 56 -11 80 -27c11 -8 14 -23 6 -35c-5 -7 -13 -11 -21 -11
c-4 0 -9 2 -14 5c-18 13 -40 19 -62 19c0 -1 -1 -1 -2 -1h-1c-19 0 -39 -7 -56 -18c-11 -8 -27 -5 -34 6c-8 12 -5 27 6 35c13 9 26 15 41 20l-19 25c-12 16 -17 36 -12 55s18 35 37 43z" />
    <glyph glyph-name="lam_alefMaddaar" unicode="&#xfedf;&#xfe82;" horiz-adv-x="493" arabic-form="isolated" 
d="M214 734l32 21c11 8 27 5 34 -6c8 -11 5 -27 -6 -35l-59 -40l-14 9c-37 25 -85 25 -122 0c-11 -8 -27 -5 -34 7c-8 11 -5 27 6 35c27 17 57 27 89 27c26 0 51 -6 74 -18zM369 356v246c0 27 22 50 50 50s50 -23 50 -50v-410v-3c0 -104 -85 -189 -190 -189
c-104 0 -189 85 -189 189v3v1v409c0 27 22 50 50 50s50 -23 50 -50v-246c27 14 57 23 89 23c33 0 63 -9 90 -23zM279 279c-49 0 -89 -41 -89 -90s40 -89 89 -89c50 0 90 40 90 89s-40 90 -90 90z" />
    <glyph glyph-name="lam_alefMaddaar.fina" unicode="&#xfee0;&#xfe82;" horiz-adv-x="559" arabic-form="final" 
d="M214 734l32 22c11 7 27 4 34 -7c8 -11 5 -27 -6 -35l-59 -40l-14 9c-37 25 -85 25 -122 0c-11 -8 -27 -5 -34 7c-8 11 -5 27 6 35c27 17 57 27 89 27c26 0 51 -6 74 -18zM369 356v246c0 28 22 50 50 50s50 -22 50 -50v-452c0 -28 22 -50 50 -50h42v-100h-42
c-44 0 -84 19 -112 50c-33 -31 -78 -50 -128 -50c-104 0 -189 85 -189 189v3v1v409c0 28 22 50 50 50s50 -22 50 -50v-246c27 15 57 23 89 23c33 0 63 -8 90 -23zM279 279c-49 0 -89 -40 -89 -90c0 -49 40 -89 89 -89c50 0 90 40 90 89c0 50 -40 90 -90 90z" />
    <glyph glyph-name="Koll" unicode="&#xfedb;&#xfede;" horiz-adv-x="861" 
d="M473 378l278 260c21 19 52 18 71 -2s18 -52 -2 -71l-229 -213c55 -34 92 -94 92 -163c0 -104 -85 -189 -190 -189c-32 0 -63 8 -89 22c-2 -102 -87 -185 -190 -185c-104 0 -189 85 -189 189c0 43 13 83 40 116c17 22 48 26 70 9s25 -48 8 -70c-12 -16 -18 -35 -18 -55
c0 -49 40 -89 89 -89s90 40 90 89v576c0 27 22 50 50 50c27 0 50 -23 50 -50v-246c21 12 44 19 69 22zM493 100c49 0 90 40 90 89c0 48 -37 87 -84 90c-2 0 -4 -1 -6 -1s-4 1 -6 1c-46 -3 -83 -42 -83 -90c0 -49 40 -89 89 -89z" />
    <glyph glyph-name="Tee" unicode="&#xfe98;&#xfef2;" horiz-adv-x="864" 
d="M563 602c-31 0 -56 -25 -56 -56s25 -57 56 -57s56 26 56 57s-25 56 -56 56zM698 602c-32 0 -57 -25 -57 -56s25 -57 57 -57c31 0 56 26 56 57s-25 56 -56 56zM823 100h41v-100h-41c-83 0 -150 67 -150 150v129h-81v-129c0 -83 -67 -150 -150 -150h-267
c-83 0 -150 67 -150 150v179c0 27 22 50 50 50s50 -23 50 -50v-179c0 -28 22 -50 50 -50h267c28 0 50 22 50 50v129h-130c-27 0 -50 22 -50 50c0 27 23 50 50 50h411v-229c0 -28 22 -50 50 -50zM241 -38c-31 0 -56 -25 -56 -57c0 -31 25 -56 56 -56s57 25 57 56
c0 32 -26 57 -57 57zM376 -38c-31 0 -57 -25 -57 -57c0 -31 26 -56 57 -56s56 25 56 56c0 32 -25 57 -56 57z" />
    <glyph glyph-name="ainar.fina" unicode="&#x639;" horiz-adv-x="662" arabic-form="final" 
d="M225 379h338c67 0 89 -32 96 -52c6 -19 10 -58 -42 -100l-144 -115l15 -12h175v-100h-210l-76 62c-164 -9 -252 -134 -252 -252c0 -28 -22 -50 -50 -50s-50 22 -50 50c0 44 8 88 25 129c17 43 41 81 73 113c33 35 72 61 117 80c11 5 22 9 34 13l-103 82
c-52 42 -48 81 -41 100c7 20 28 52 95 52zM394 176l128 103h-255z" />
    <glyph glyph-name="ainar.init" unicode="&#x639;" horiz-adv-x="531" arabic-form="initial" 
d="M276 379h2c53 0 102 -19 140 -54c39 -36 60 -84 60 -135c0 -28 -23 -50 -50 -50c-28 0 -50 22 -50 50c0 49 -45 89 -100 89h-2c-65 0 -117 -51 -117 -114v-65h297c28 0 50 -22 50 -50s-22 -50 -50 -50h-457v100h60v65c0 58 23 111 64 152c41 40 95 62 153 62z" />
    <glyph glyph-name="ainar.medi" unicode="&#x639;" horiz-adv-x="536" arabic-form="medial" 
d="M99 379h338c67 0 89 -32 96 -52c6 -19 10 -58 -42 -100l-144 -115l15 -12h175v-100h-210l-59 48l-60 -48h-209v100h174l15 12l-143 115c-52 42 -48 81 -41 100c7 20 28 52 95 52zM268 176l128 103h-255z" />
    <glyph glyph-name="alefar.fina" unicode="&#x627;" horiz-adv-x="265" arabic-form="final" 
d="M75 150v452c0 28 22 50 50 50c27 0 50 -22 50 -50v-452c0 -28 22 -50 50 -50h41v-100h-41c-83 0 -150 67 -150 150z" />
    <glyph glyph-name="alefHamzaabovear.fina" unicode="&#x623;" horiz-adv-x="280" arabic-form="final" 
d="M99 868l121 44v-110c0 -14 -11 -25 -25 -25s-25 11 -25 25v39l-52 -19c-5 -2 -8 -6 -9 -9c-1 -4 1 -9 4 -14l36 -47c28 -2 55 -11 79 -27c12 -8 15 -23 7 -35c-5 -7 -13 -11 -21 -11c-5 0 -10 2 -14 5c-19 12 -40 19 -62 18h-2h-1c-19 -1 -39 -7 -56 -18
c-11 -8 -27 -5 -35 6c-7 12 -5 27 7 35c13 8 26 15 40 20l-18 24c-12 17 -17 37 -12 56c4 19 18 34 37 43h1zM90 150v452c0 28 22 50 50 50c27 0 50 -22 50 -50v-452c0 -28 22 -50 50 -50h41v-100h-41c-83 0 -150 67 -150 150z" />
    <glyph glyph-name="alefMaddaar.fina" unicode="&#x622;" horiz-adv-x="279" arabic-form="final" 
d="M213 734l32 22c12 7 27 5 35 -7c8 -11 5 -27 -6 -35l-60 -40l-14 9c-37 25 -84 25 -121 0c-11 -7 -27 -4 -35 7c-7 11 -4 27 7 35c26 18 57 27 89 27c26 0 51 -6 73 -18zM89 150v452c0 28 23 50 50 50c28 0 50 -22 50 -50v-452c0 -28 23 -50 50 -50h42v-100h-42
c-82 0 -150 67 -150 150z" />
    <glyph glyph-name="alefMaksuraar.fina" unicode="&#x649;" horiz-adv-x="827" arabic-form="final" 
d="M359 379h239c76 0 139 -63 139 -139v-90c0 -28 22 -50 50 -50h42v-100h-42c-83 0 -150 67 -150 150v90c0 21 -18 39 -39 39h-239v-39h233v-90c0 -83 -67 -150 -150 -150h-267c-83 0 -150 67 -150 150v179c0 28 22 50 50 50s50 -22 50 -50v-179c0 -28 23 -50 50 -50h267
c24 0 45 17 49 40h-132c-55 0 -100 45 -100 100v39c0 55 45 100 100 100z" />
    <glyph glyph-name="alefhamzabelowar.fina" unicode="&#x625;" horiz-adv-x="280" arabic-form="final" 
d="M90 150v452c0 28 22 50 50 50c27 0 50 -22 50 -50v-452c0 -28 22 -50 50 -50h41v-100h-41c-83 0 -150 67 -150 150zM99 -55l121 44v-111c0 -13 -11 -25 -25 -25s-25 12 -25 25v39l-52 -18c-5 -3 -8 -6 -9 -10s1 -9 4 -13l36 -48c28 -1 55 -10 79 -27c12 -7 15 -23 7 -34
c-5 -7 -13 -11 -21 -11c-5 0 -10 1 -14 4c-19 13 -40 19 -62 19h-2h-1c-19 -1 -39 -7 -56 -19c-11 -8 -27 -5 -35 7c-7 11 -5 27 7 34c13 9 26 16 40 20l-18 25c-12 16 -17 37 -12 55c4 19 18 35 37 43z" />
    <glyph glyph-name="behar.fina" unicode="&#x628;" horiz-adv-x="683" arabic-form="final" 
d="M492 150v179c0 27 22 50 50 50s50 -23 50 -50v-179v-3c2 -26 23 -47 50 -47h42v-100h-42c-38 0 -73 14 -100 38c-27 -24 -62 -38 -100 -38h-267c-83 0 -150 67 -150 150v179c0 27 22 50 50 50c27 0 50 -23 50 -50v-179c0 -28 22 -50 50 -50h267c27 0 48 21 50 47v3z
M308 -38c32 0 57 -25 57 -56s-25 -57 -57 -57c-31 0 -56 26 -56 57s25 56 56 56z" />
    <glyph glyph-name="behar.init" unicode="&#x628;" horiz-adv-x="241" arabic-form="initial" 
d="M116 150v179c0 27 22 50 50 50c27 0 50 -23 50 -50v-179c0 -83 -68 -150 -150 -150h-67v100h67c27 0 50 22 50 50zM92 -38c31 0 56 -25 56 -56s-25 -57 -56 -57s-57 26 -57 57s26 56 57 56z" />
    <glyph glyph-name="behar.medi" unicode="&#x628;" horiz-adv-x="281" arabic-form="medial" 
d="M91 150v179c0 28 22 50 50 50c27 0 50 -22 50 -50v-179c0 -28 22 -50 50 -50h41v-100h-41c-39 0 -74 14 -100 38c-27 -24 -62 -38 -100 -38h-42v100h42c27 0 50 22 50 50zM141 -38c31 0 56 -25 56 -56s-25 -57 -56 -57s-57 26 -57 57s26 56 57 56z" />
    <glyph glyph-name="dadar.fina" unicode="&#x636;" horiz-adv-x="991" arabic-form="final" 
d="M511 602c31 0 56 -25 56 -56s-25 -57 -56 -57s-57 26 -57 57s26 56 57 56zM504 379h246c83 0 150 -67 150 -150v-79c0 -28 23 -50 50 -50h42v-100h-42c-37 0 -72 14 -98 37c-28 -24 -64 -37 -102 -37h-349c-15 -89 -93 -157 -186 -157c-105 0 -190 85 -190 190
c0 42 14 82 40 116c17 22 48 26 70 9s26 -49 9 -70c-12 -16 -19 -35 -19 -55c0 -50 40 -90 90 -90c49 0 89 40 89 90v157c0 51 21 99 60 135c38 35 87 54 140 54zM800 140v89c0 28 -22 50 -50 50h-246c-55 0 -100 -40 -100 -89v-90h346c28 0 50 18 50 40z" />
    <glyph glyph-name="dadar.init" unicode="&#x636;" horiz-adv-x="712" arabic-form="initial" 
d="M298 602c31 0 56 -25 56 -56s-25 -57 -56 -57s-57 26 -57 57s26 56 57 56zM291 379h246c83 0 150 -67 150 -150v-229h-446c-37 0 -72 10 -99 29l-6 5c-26 -21 -59 -34 -95 -34h-42v100h42c28 0 50 22 50 50v40c0 51 21 99 60 135c38 35 87 54 140 54zM587 100v129
c0 28 -22 50 -50 50h-246c-55 0 -100 -40 -100 -89v-70c1 -5 18 -20 50 -20h346z" />
    <glyph glyph-name="dadar.medi" unicode="&#x636;" horiz-adv-x="778" arabic-form="medial" 
d="M297 602c32 0 57 -25 57 -57c0 -31 -25 -56 -57 -56c-31 0 -56 25 -56 56c0 32 25 57 56 57zM291 379h246c83 0 150 -67 150 -150v-79c0 -28 23 -50 50 -50h42v-100h-42c-37 0 -72 14 -98 37c-28 -24 -64 -37 -102 -37h-296c-37 0 -72 10 -100 29l-6 5
c-25 -21 -58 -34 -94 -34h-42v100h42c27 0 50 22 50 50v40c0 51 21 99 60 135c37 35 87 54 140 54zM587 140v89c0 28 -22 50 -50 50h-246c-55 0 -100 -40 -100 -89v-70c1 -5 18 -20 50 -20h296c27 0 50 18 50 40z" />
    <glyph glyph-name="dalar.fina" unicode="&#x62f;" horiz-adv-x="510" arabic-form="final" 
d="M190 379h79c83 0 150 -67 150 -150v-79c0 -28 22 -50 50 -50h42v-100h-42c-38 0 -73 14 -100 38c-27 -24 -62 -38 -100 -38h-179c-28 0 -50 22 -50 50s22 50 50 50h179c28 0 50 22 50 50v79c0 28 -22 50 -50 50h-79c-28 0 -50 -22 -50 -50s-22 -50 -50 -50s-50 22 -50 50
c0 83 67 150 150 150z" />
    <glyph glyph-name="fehar.fina" unicode="&#x641;" horiz-adv-x="651" arabic-form="final" 
d="M418 602c32 0 57 -25 57 -56s-25 -57 -57 -57c-31 0 -56 26 -56 57s25 56 56 56zM175 100h61c-15 27 -23 57 -23 90c0 104 85 189 190 189c104 0 189 -85 189 -189v-90h60v-100h-477c-83 0 -150 67 -150 150v179c0 28 22 50 50 50s50 -22 50 -50v-179
c0 -28 22 -50 50 -50zM492 100v90c0 49 -40 89 -89 89c-50 0 -90 -40 -90 -89c0 -50 40 -90 90 -90h89z" />
    <glyph glyph-name="fehar.init" unicode="&#x641;" horiz-adv-x="448" arabic-form="initial" 
d="M233 602c31 0 57 -25 57 -56s-26 -56 -57 -56s-56 25 -56 56s25 56 56 56zM-1 100h67c-14 27 -22 57 -22 90c0 104 85 189 189 189c105 0 190 -85 190 -189v-190h-424v100zM323 100v90c0 49 -40 89 -90 89c-49 0 -89 -40 -89 -89c0 -50 40 -90 89 -90h90z" />
    <glyph glyph-name="fehar.medi" unicode="&#x641;" horiz-adv-x="462" arabic-form="medial" 
d="M233 602c31 0 57 -25 57 -56s-26 -56 -57 -56s-56 25 -56 56s25 56 56 56zM-1 100h67c-14 27 -22 57 -22 90c0 104 85 189 189 189c105 0 190 -85 190 -189v-90h40v-100h-464v100zM323 100v90c0 49 -40 89 -90 89c-49 0 -89 -40 -89 -89c0 -50 40 -90 89 -90h90z" />
    <glyph glyph-name="gafar.fina" unicode="&#x6af;" horiz-adv-x="579" arabic-form="final" 
d="M38 362l292 331c18 21 50 23 71 4c20 -18 22 -50 4 -70l-292 -331c-10 -11 -24 -17 -38 -17c-12 0 -24 4 -33 13c-21 18 -23 50 -4 70zM148 279l366 414c18 21 50 23 71 4c20 -18 22 -50 4 -70l-239 -271c59 -32 99 -95 99 -166v-6v-34c0 -27 22 -50 50 -50h81v-100h-81
c-45 0 -85 19 -112 50c-34 -31 -79 -50 -128 -50c-104 0 -189 85 -189 190c0 27 22 50 50 50c27 0 50 -23 50 -50c0 -50 40 -90 89 -90c48 0 87 38 90 86v4v2c-2 48 -41 87 -90 87h-111z" />
    <glyph glyph-name="gafar.init" unicode="&#x6af;" horiz-adv-x="620" arabic-form="initial" 
d="M142 279l366 414c18 21 50 23 71 4c20 -18 22 -50 4 -70l-239 -271c59 -32 99 -95 99 -166c0 -105 -85 -190 -190 -190h-254v100h254c49 0 90 40 90 90c0 49 -41 89 -90 89h-111zM32 362l293 331c18 21 50 23 70 4c21 -18 23 -50 5 -70l-293 -331
c-10 -11 -23 -17 -37 -17c-12 0 -24 4 -33 13c-21 18 -23 50 -5 70z" />
    <glyph glyph-name="gafar.medi" unicode="&#x6af;" horiz-adv-x="581" arabic-form="medial" 
d="M151 279l366 414c18 21 50 23 71 4c20 -18 22 -50 4 -70l-239 -271c59 -32 99 -95 99 -166v-40c0 -27 22 -50 50 -50h81v-100h-81c-44 0 -84 19 -112 50c-34 -31 -79 -50 -128 -50h-263v100h263c49 0 90 40 90 90c0 49 -41 89 -90 89h-111zM41 362l293 331
c18 21 50 23 70 4c21 -18 23 -50 5 -70l-293 -331c-10 -11 -23 -17 -37 -17c-12 0 -24 4 -33 13c-21 18 -23 50 -5 70z" />
    <glyph glyph-name="ghainar.fina" unicode="&#x63a;" horiz-adv-x="663" arabic-form="final" 
d="M399 602c31 0 56 -25 56 -56s-25 -56 -56 -56s-57 25 -57 56s26 56 57 56zM225 379h338c67 0 89 -32 96 -52c6 -19 10 -58 -42 -100l-144 -115l15 -12h175v-100h-210l-76 62c-164 -9 -252 -134 -252 -252c0 -28 -22 -50 -50 -50s-50 22 -50 50c0 44 8 88 25 129
c17 43 41 81 73 113c33 35 72 61 117 80c11 5 22 9 34 13l-103 82c-52 42 -48 81 -41 100c7 20 28 52 95 52zM394 176l128 103h-255z" />
    <glyph glyph-name="ghainar.init" unicode="&#x63a;" horiz-adv-x="532" arabic-form="initial" 
d="M269 602c32 0 57 -25 57 -56s-25 -56 -57 -56c-31 0 -56 25 -56 56s25 56 56 56zM277 379h2c53 0 102 -19 140 -54c39 -36 60 -84 60 -135c0 -28 -23 -50 -50 -50c-28 0 -50 22 -50 50c0 49 -45 89 -100 89h-2c-65 0 -117 -51 -117 -114v-65h297c28 0 50 -22 50 -50
s-22 -50 -50 -50h-457v100h60v65c0 58 23 111 64 152c41 40 95 62 153 62z" />
    <glyph glyph-name="ghainar.medi" unicode="&#x63a;" horiz-adv-x="538" arabic-form="medial" 
d="M274 602c31 0 56 -25 56 -56s-25 -56 -56 -56s-57 25 -57 56s26 56 57 56zM100 379h338c67 0 89 -32 96 -52c6 -19 10 -58 -42 -100l-144 -115l15 -12h175v-100h-210l-59 48l-60 -48h-209v100h174l15 12l-143 115c-52 42 -48 81 -41 100c7 20 28 52 95 52zM269 176
l128 103h-255z" />
    <glyph glyph-name="hahar.fina" unicode="&#x62d;" horiz-adv-x="699" arabic-form="final" 
d="M225 379h166c58 0 112 -22 153 -62c41 -41 64 -94 64 -152v-15c0 -28 22 -50 50 -50h42v-100h-42c-35 0 -67 12 -92 32c-4 -3 -8 -6 -12 -8c-27 -16 -61 -24 -96 -24h-142c-105 0 -191 -85 -191 -190c0 -28 -23 -50 -50 -50c-28 0 -50 22 -50 50c0 77 30 150 85 205
s128 85 206 85h142c27 0 44 8 50 13v52c0 63 -52 114 -117 114h-166c-55 0 -100 -40 -100 -89c0 -28 -23 -50 -50 -50c-28 0 -50 22 -50 50c0 51 21 99 60 135c37 35 87 54 140 54z" />
    <glyph glyph-name="hahar.init" unicode="&#x62d;" horiz-adv-x="642" arabic-form="initial" 
d="M234 379h167c57 0 112 -22 152 -62c42 -41 64 -94 64 -152v-165h-618v100h518v65c0 63 -52 114 -116 114h-167c-55 0 -100 -40 -100 -89c0 -28 -22 -50 -50 -50s-50 22 -50 50c0 51 21 99 60 135c38 35 87 54 140 54z" />
    <glyph glyph-name="hahar.medi" unicode="&#x62d;" horiz-adv-x="708" arabic-form="medial" 
d="M234 379h166c58 0 112 -22 153 -62c41 -41 64 -94 64 -152v-15c0 -28 22 -50 50 -50h42v-100h-42c-32 0 -63 10 -87 28c-20 -17 -47 -28 -76 -28h-505v100h505c8 0 13 5 13 8v57c0 63 -52 114 -117 114h-166c-55 0 -100 -40 -100 -89c0 -28 -22 -50 -50 -50
s-50 22 -50 50c0 51 21 99 60 135c37 35 87 54 140 54z" />
    <glyph glyph-name="hehar.fina" unicode="&#x647;" horiz-adv-x="495" arabic-form="final" 
d="M496 0h-42c-44 0 -84 19 -112 50c-33 -31 -78 -50 -127 -50c-105 0 -190 85 -190 190c0 104 85 189 190 189c104 0 189 -85 189 -189v-40c0 -28 22 -50 50 -50h42v-100zM215 279c-50 0 -90 -40 -90 -89c0 -50 40 -90 90 -90c49 0 89 40 89 90c0 49 -40 89 -89 89z" />
    <glyph glyph-name="hehar.init" unicode="&#x647;" horiz-adv-x="664" arabic-form="initial" 
d="M-1 100h79c-14 26 -22 57 -22 89c0 84 54 155 130 180c21 27 48 49 79 65c36 19 77 29 118 29c69 0 133 -27 181 -75c49 -48 75 -113 75 -181v-207h-640v100zM539 100v107c0 86 -70 156 -156 156c-16 0 -32 -3 -47 -7c59 -33 99 -95 99 -167v-89h104zM335 100v89
c0 50 -40 90 -90 90c-49 0 -89 -40 -89 -90c0 -49 40 -89 89 -89h90z" />
    <glyph glyph-name="hehar.medi" unicode="&#x647;" horiz-adv-x="746" arabic-form="medial" 
d="M323 357v82c0 28 22 50 50 50c27 0 50 -22 50 -50v-82c26 14 57 22 89 22c105 0 190 -85 190 -189c0 -33 -8 -63 -23 -90h68v-100h-748v100h67c-14 27 -22 57 -22 90c0 104 85 189 189 189c33 0 63 -8 90 -22zM323 100v90c0 49 -40 89 -90 89c-49 0 -89 -40 -89 -89
c0 -50 40 -90 89 -90h90zM423 100h89c50 0 90 40 90 90c0 49 -40 89 -90 89c-49 0 -89 -40 -89 -89v-90z" />
    <glyph glyph-name="jeemar.fina" unicode="&#x62c;" horiz-adv-x="699" arabic-form="final" 
d="M225 379h166c58 0 112 -22 153 -62c41 -41 64 -94 64 -152v-15c0 -28 22 -50 50 -50h42v-100h-42c-35 0 -67 12 -92 32c-4 -3 -8 -6 -12 -8c-27 -16 -61 -24 -96 -24h-142c-105 0 -191 -85 -191 -190c0 -28 -23 -50 -50 -50c-28 0 -50 22 -50 50c0 77 30 150 85 205
s128 85 206 85h142c27 0 44 8 50 13v52c0 63 -52 114 -117 114h-166c-55 0 -100 -40 -100 -89c0 -28 -23 -50 -50 -50c-28 0 -50 22 -50 50c0 51 21 99 60 135c37 35 87 54 140 54zM400 -52c31 0 56 -25 56 -57c0 -31 -25 -56 -56 -56s-57 25 -57 56c0 32 26 57 57 57z" />
    <glyph glyph-name="jeemar.init" unicode="&#x62c;" horiz-adv-x="642" arabic-form="initial" 
d="M234 379h167c57 0 112 -22 152 -62c42 -41 64 -94 64 -152v-165h-618v100h518v65c0 63 -52 114 -116 114h-167c-55 0 -100 -40 -100 -89c0 -28 -22 -50 -50 -50s-50 22 -50 50c0 51 21 99 60 135c38 35 87 54 140 54zM326 -52c31 0 56 -25 56 -57c0 -31 -25 -56 -56 -56
c-32 0 -57 25 -57 56c0 32 25 57 57 57z" />
    <glyph glyph-name="jeemar.medi" unicode="&#x62c;" horiz-adv-x="708" arabic-form="medial" 
d="M234 379h166c58 0 112 -22 153 -62c41 -41 64 -94 64 -152v-15c0 -28 22 -50 50 -50h42v-100h-42c-32 0 -63 10 -87 28c-20 -17 -47 -28 -76 -28h-505v100h505c8 0 13 5 13 8v57c0 63 -52 114 -117 114h-166c-55 0 -100 -40 -100 -89c0 -28 -22 -50 -50 -50
s-50 22 -50 50c0 51 21 99 60 135c37 35 87 54 140 54zM325 -52c32 0 57 -26 57 -57s-25 -56 -57 -56c-31 0 -56 25 -56 56s25 57 56 57z" />
    <glyph glyph-name="jehar.fina" unicode="&#x698;" horiz-adv-x="393" arabic-form="final" 
d="M199 715c31 0 57 -25 57 -56s-26 -57 -57 -57s-56 26 -56 57s25 56 56 56zM132 602c31 0 56 -25 56 -56s-25 -57 -56 -57s-57 26 -57 57s26 56 57 56zM266 602c32 0 57 -25 57 -56s-25 -57 -57 -57c-31 0 -56 26 -56 57s25 56 56 56zM202 35v205c0 21 -18 39 -40 39
c-28 0 -50 22 -50 50s22 50 50 50c77 0 140 -63 140 -139v-90c0 -28 22 -50 50 -50h42v-100h-42c-18 0 -35 3 -52 9c-5 -53 -27 -103 -63 -141c-43 -46 -101 -71 -162 -71c-27 0 -50 22 -50 50c0 27 23 50 50 50c70 0 127 62 127 138z" />
    <glyph glyph-name="kafar.fina" unicode="&#x643;" horiz-adv-x="591" arabic-form="final" 
d="M401 150v452c0 28 22 50 50 50c27 0 50 -22 50 -50v-452c0 -28 22 -50 50 -50h41v-100h-41c-39 0 -74 14 -100 38c-27 -24 -62 -38 -100 -38h-151c-83 0 -150 67 -150 150v179c0 28 22 50 50 50c27 0 50 -22 50 -50v-179c0 -28 22 -50 50 -50h151c27 0 50 22 50 50z
M59 594l121 44v-110c0 -14 -11 -25 -25 -25s-25 11 -25 25v39l-52 -19c-5 -2 -8 -6 -9 -10s1 -8 4 -13l36 -47c28 -2 56 -11 79 -27c12 -8 15 -24 7 -35c-8 -12 -23 -14 -35 -7c-19 13 -40 19 -62 19h-2h-1c-19 -1 -39 -7 -56 -19c-4 -3 -9 -4 -14 -4c-8 0 -16 4 -21 11
c-7 11 -4 27 7 35c13 8 26 15 41 19l-19 25c-12 17 -17 37 -12 56c5 18 18 34 37 43h1z" />
    <glyph glyph-name="kafar.init" unicode="&#x643;" horiz-adv-x="475" arabic-form="initial" 
d="M22 279l366 414c18 21 50 23 71 4c20 -18 22 -50 4 -70l-239 -271c59 -32 99 -95 99 -166c0 -105 -85 -190 -190 -190h-134v100h134c49 0 90 40 90 90c0 49 -41 89 -90 89h-111z" />
    <glyph glyph-name="kafar.medi" unicode="&#x643;" horiz-adv-x="483" arabic-form="medial" 
d="M31 279l366 414c18 21 50 23 71 4c20 -18 22 -50 4 -70l-239 -271c59 -32 99 -95 99 -166v-40c0 -27 22 -50 50 -50h101v-100h-101c-44 0 -84 19 -112 50c-34 -31 -79 -50 -128 -50h-143v100h143c49 0 90 40 90 90c0 49 -41 89 -90 89h-111z" />
    <glyph glyph-name="uniFB8F" unicode="&#x6a9;" horiz-adv-x="555" arabic-form="final" 
d="M103 279l366 414c18 21 50 23 71 4c20 -18 22 -50 4 -70l-239 -271c59 -32 99 -95 99 -166v-6v-34c0 -27 22 -50 50 -50h101v-100h-101c-45 0 -85 19 -112 50c-34 -31 -79 -50 -128 -50c-104 0 -189 85 -189 190c0 27 22 50 50 50c27 0 50 -23 50 -50
c0 -50 40 -90 89 -90c48 0 87 38 90 86v4v2c-2 48 -41 87 -90 87h-111z" />
    <glyph glyph-name="uniFB90" unicode="&#x6a9;" horiz-adv-x="475" arabic-form="initial" 
d="M22 279l366 414c18 21 50 23 71 4c20 -18 22 -50 4 -70l-239 -271c59 -32 99 -95 99 -166c0 -105 -85 -190 -190 -190h-134v100h134c49 0 90 40 90 90c0 49 -41 89 -90 89h-111z" />
    <glyph glyph-name="uniFB91" unicode="&#x6a9;" horiz-adv-x="483" arabic-form="medial" 
d="M31 279l366 414c18 21 50 23 71 4c20 -18 22 -50 4 -70l-239 -271c59 -32 99 -95 99 -166v-40c0 -27 22 -50 50 -50h101v-100h-101c-44 0 -84 19 -112 50c-34 -31 -79 -50 -128 -50h-143v100h143c49 0 90 40 90 90c0 49 -41 89 -90 89h-111z" />
    <glyph glyph-name="khahar.fina" unicode="&#x62e;" horiz-adv-x="699" arabic-form="final" 
d="M316 602c31 0 57 -25 57 -56s-26 -56 -57 -56s-56 25 -56 56s25 56 56 56zM225 379h166c58 0 112 -22 153 -62c41 -41 64 -94 64 -152v-15c0 -28 22 -50 50 -50h42v-100h-42c-35 0 -67 12 -92 32c-4 -3 -8 -6 -12 -8c-27 -16 -61 -24 -96 -24h-142
c-105 0 -191 -85 -191 -190c0 -28 -23 -50 -50 -50c-28 0 -50 22 -50 50c0 77 30 150 85 205s128 85 206 85h142c27 0 44 8 50 13v52c0 63 -52 114 -117 114h-166c-55 0 -100 -40 -100 -89c0 -28 -23 -50 -50 -50c-28 0 -50 22 -50 50c0 51 21 99 60 135c37 35 87 54 140 54
z" />
    <glyph glyph-name="khahar.init" unicode="&#x62e;" horiz-adv-x="642" arabic-form="initial" 
d="M315 602c31 0 56 -25 56 -56s-25 -56 -56 -56s-57 25 -57 56s26 56 57 56zM234 379h167c57 0 112 -22 152 -62c42 -41 64 -94 64 -152v-165h-618v100h518v65c0 63 -52 114 -116 114h-167c-55 0 -100 -40 -100 -89c0 -28 -22 -50 -50 -50s-50 22 -50 50c0 51 21 99 60 135
c38 35 87 54 140 54z" />
    <glyph glyph-name="khahar.medi" unicode="&#x62e;" horiz-adv-x="708" arabic-form="medial" 
d="M315 602c31 0 56 -25 56 -56s-25 -56 -56 -56c-32 0 -57 25 -57 56s25 56 57 56zM234 379h166c58 0 112 -22 153 -62c41 -41 64 -94 64 -152v-15c0 -28 22 -50 50 -50h42v-100h-42c-32 0 -63 10 -87 28c-20 -17 -47 -28 -76 -28h-505v100h505c8 0 13 5 13 8v57
c0 63 -52 114 -117 114h-166c-55 0 -100 -40 -100 -89c0 -28 -22 -50 -50 -50s-50 22 -50 50c0 51 21 99 60 135c37 35 87 54 140 54z" />
    <glyph glyph-name="lamar.fina" unicode="&#x644;" horiz-adv-x="495" arabic-form="final" 
d="M304 26v576c0 28 22 50 50 50s50 -22 50 -50v-452c0 -28 22 -50 50 -50h42v-100h-42c-18 0 -35 3 -51 9c-9 -97 -90 -172 -189 -172c-104 0 -189 85 -189 189c0 43 14 83 40 117c17 22 48 25 70 9c22 -17 26 -49 9 -71c-13 -15 -19 -34 -19 -55c0 -49 40 -89 89 -89
c50 0 90 40 90 89z" />
    <glyph glyph-name="lamar.init" unicode="&#x644;" horiz-adv-x="241" arabic-form="initial" 
d="M91 150v452c0 28 23 50 50 50c28 0 50 -22 50 -50v-452c0 -83 -67 -150 -150 -150h-42v100h42c28 0 50 22 50 50z" />
    <glyph glyph-name="lamar.medi" unicode="&#x644;" horiz-adv-x="282" arabic-form="medial" 
d="M91 150v452c0 28 22 50 50 50s50 -22 50 -50v-452c0 -28 22 -50 50 -50h42v-100h-42c-38 0 -73 14 -100 38c-27 -24 -62 -38 -100 -38h-42v100h42c28 0 50 22 50 50z" />
    <glyph glyph-name="meemar.fina" unicode="&#x645;" horiz-adv-x="717" arabic-form="final" 
d="M247 150v179c0 28 22 50 50 50c19 0 35 -11 44 -26c28 17 61 26 96 26c104 0 189 -85 189 -190v-39c0 -28 22 -50 50 -50h42v-100h-42c-44 0 -84 19 -111 50c-34 -31 -79 -50 -128 -50c-50 0 -95 19 -128 50c-28 -31 -68 -50 -112 -50h-122c-27 0 -50 22 -50 50
s23 50 50 50h122c28 0 50 22 50 50zM437 279c-50 0 -90 -40 -90 -90c0 -49 40 -89 90 -89c49 0 89 40 89 89c0 50 -40 90 -89 90z" />
    <glyph glyph-name="meemar.init" unicode="&#x645;" horiz-adv-x="535" arabic-form="initial" 
d="M131 150v179c0 28 22 50 50 50c19 0 35 -10 44 -26c28 17 61 26 96 26c104 0 189 -85 189 -189c0 -105 -85 -190 -189 -190c-50 0 -95 19 -128 50c-28 -30 -68 -50 -112 -50h-82v100h82c28 0 50 23 50 50zM321 279c-50 0 -90 -40 -90 -89c0 -50 40 -90 90 -90
c49 0 89 40 89 90c0 49 -40 89 -89 89z" />
    <glyph glyph-name="meemar.medi" unicode="&#x645;" horiz-adv-x="601" arabic-form="medial" 
d="M131 150v179c0 28 22 50 50 50c19 0 35 -11 44 -26c28 17 61 26 96 26c104 0 189 -85 189 -190v-39c0 -28 22 -50 50 -50h42v-100h-42c-44 0 -84 19 -111 50c-34 -31 -79 -50 -128 -50c-50 0 -95 19 -128 50c-28 -31 -68 -50 -112 -50h-82v100h82c28 0 50 22 50 50z
M321 279c-50 0 -90 -40 -90 -90c0 -49 40 -89 90 -89c49 0 89 40 89 89c0 50 -40 90 -89 90z" />
    <glyph glyph-name="noonar.fina" unicode="&#x646;" horiz-adv-x="495" arabic-form="final" 
d="M215 489c31 0 56 -25 56 -56c0 -32 -25 -57 -56 -57c-32 0 -57 25 -57 57c0 31 25 56 57 56zM304 24v157c0 28 23 50 50 50c28 0 50 -22 50 -50v-31c0 -28 23 -50 50 -50h42v-100h-42c-18 0 -35 3 -51 9c-7 -97 -89 -174 -188 -174c-105 0 -190 85 -190 189
c0 43 14 83 40 117c17 22 48 25 70 8s26 -48 9 -70c-12 -16 -19 -35 -19 -55c0 -49 40 -89 90 -89c49 0 89 40 89 89z" />
    <glyph glyph-name="noonar.init" unicode="&#x646;" horiz-adv-x="273" arabic-form="initial" 
d="M149 602c31 0 57 -25 57 -56c0 -32 -26 -57 -57 -57s-56 25 -56 57c0 31 25 56 56 56zM106 150v179c0 27 22 50 50 50c27 0 50 -23 50 -50v-179c0 -83 -68 -150 -150 -150h-57v100h57c27 0 50 22 50 50z" />
    <glyph glyph-name="noonar.medi" unicode="&#x646;" horiz-adv-x="281" arabic-form="medial" 
d="M141 602c31 0 56 -25 56 -56c0 -32 -25 -57 -56 -57s-57 25 -57 57c0 31 26 56 57 56zM91 150v179c0 28 22 50 50 50c27 0 50 -22 50 -50v-179c0 -28 22 -50 50 -50h41v-100h-41c-39 0 -74 14 -100 38c-27 -24 -62 -38 -100 -38h-42v100h42c27 0 50 22 50 50z" />
    <glyph glyph-name="pehar.fina" unicode="&#x67e;" horiz-adv-x="683" arabic-form="final" 
d="M492 150v179c0 27 22 50 50 50s50 -23 50 -50v-179v-3c2 -26 23 -47 50 -47h42v-100h-42c-38 0 -73 14 -100 38c-27 -24 -62 -38 -100 -38h-267c-83 0 -150 67 -150 150v179c0 27 22 50 50 50c27 0 50 -23 50 -50v-179c0 -28 22 -50 50 -50h267c27 0 48 21 50 47v3z
M241 -38c31 0 57 -25 57 -56s-26 -57 -57 -57s-56 26 -56 57s25 56 56 56zM376 -38c31 0 56 -25 56 -56s-25 -57 -56 -57s-57 26 -57 57s26 56 57 56zM308 -151c32 0 57 -25 57 -56s-25 -57 -57 -57c-31 0 -56 26 -56 57s25 56 56 56z" />
    <glyph glyph-name="pehar.init" unicode="&#x67e;" horiz-adv-x="301" arabic-form="initial" 
d="M176 150v179c0 27 22 50 50 50c27 0 50 -23 50 -50v-179c0 -83 -68 -150 -150 -150h-127v100h127c27 0 50 22 50 50zM85 -38c31 0 56 -25 56 -56s-25 -57 -56 -57c-32 0 -57 26 -57 57s25 56 57 56zM219 -38c31 0 57 -25 57 -56s-26 -57 -57 -57s-56 26 -56 57
s25 56 56 56zM152 -151c31 0 56 -25 56 -56s-25 -57 -56 -57s-57 26 -57 57s26 56 57 56z" />
    <glyph glyph-name="pehar.medi" unicode="&#x67e;" horiz-adv-x="281" arabic-form="medial" 
d="M91 150v179c0 28 22 50 50 50c27 0 50 -22 50 -50v-179c0 -28 22 -50 50 -50h41v-100h-41c-39 0 -74 14 -100 38c-27 -24 -62 -38 -100 -38h-42v100h42c27 0 50 22 50 50zM73 -38c32 0 57 -25 57 -56s-25 -57 -57 -57c-31 0 -56 26 -56 57s25 56 56 56zM208 -38
c31 0 56 -25 56 -56s-25 -57 -56 -57s-56 26 -56 57s25 56 56 56zM141 -151c31 0 56 -25 56 -56s-25 -56 -56 -56s-57 25 -57 56s26 56 57 56z" />
    <glyph glyph-name="qafar.fina" unicode="&#x642;" horiz-adv-x="639" arabic-form="final" 
d="M335 602c32 0 57 -25 57 -56s-25 -56 -57 -56c-31 0 -56 25 -56 56s25 56 56 56zM470 602c31 0 56 -25 56 -56s-25 -56 -56 -56s-56 25 -56 56s25 56 56 56zM482 0h-79c-105 0 -190 85 -190 189c0 105 85 190 190 190c104 0 189 -85 189 -190v-89h48v-100h-52
c-4 -16 -10 -31 -18 -46c-13 -25 -32 -46 -56 -64c-47 -36 -107 -55 -172 -55h-67c-64 0 -124 18 -170 50c-24 17 -43 37 -57 59c-15 25 -23 52 -23 81v139c0 28 22 50 50 50s50 -22 50 -50v-139c0 -28 23 -48 37 -58c29 -20 70 -32 113 -32h67c62 0 117 27 140 65zM492 100
v89c0 50 -40 90 -89 90c-50 0 -90 -40 -90 -90c0 -49 40 -89 90 -89h3h86z" />
    <glyph glyph-name="qafar.init" unicode="&#x642;" horiz-adv-x="448" arabic-form="initial" 
d="M166 602c31 0 56 -25 56 -56s-25 -56 -56 -56s-56 25 -56 56s25 56 56 56zM301 602c31 0 56 -25 56 -56s-25 -56 -56 -56c-32 0 -57 25 -57 56s25 56 57 56zM-1 100h67c-14 27 -22 57 -22 90c0 104 85 189 189 189c105 0 190 -85 190 -189v-190h-424v100zM323 100v90
c0 49 -40 89 -90 89c-49 0 -89 -40 -89 -89c0 -50 40 -90 89 -90h90z" />
    <glyph glyph-name="qafar.medi" unicode="&#x642;" horiz-adv-x="462" arabic-form="medial" 
d="M166 602c31 0 56 -25 56 -56s-25 -56 -56 -56s-56 25 -56 56s25 56 56 56zM301 602c31 0 56 -25 56 -56s-25 -56 -56 -56c-32 0 -57 25 -57 56s25 56 57 56zM-1 100h67c-14 27 -22 57 -22 90c0 104 85 189 189 189c105 0 190 -85 190 -189v-90h40v-100h-464v100zM323 100
v90c0 49 -40 89 -90 89c-49 0 -89 -40 -89 -89c0 -50 40 -90 89 -90h90z" />
    <glyph glyph-name="rehar.fina" unicode="&#x631;" horiz-adv-x="393" arabic-form="final" 
d="M202 35v205c0 21 -18 39 -40 39c-28 0 -50 22 -50 50s22 50 50 50c77 0 140 -63 140 -139v-90c0 -28 22 -50 50 -50h42v-100h-42c-18 0 -35 3 -52 9c-5 -53 -27 -103 -63 -141c-43 -46 -101 -71 -162 -71c-27 0 -50 22 -50 50c0 27 23 50 50 50c70 0 127 62 127 138z" />
    <glyph glyph-name="sadar.fina" unicode="&#x635;" horiz-adv-x="991" arabic-form="final" 
d="M504 379h246c83 0 150 -67 150 -150v-79c0 -28 23 -50 50 -50h42v-100h-42c-37 0 -72 14 -98 37c-28 -24 -64 -37 -102 -37h-349c-15 -89 -93 -157 -186 -157c-105 0 -190 85 -190 190c0 42 14 82 40 116c17 22 48 26 70 9s26 -49 9 -70c-12 -16 -19 -35 -19 -55
c0 -50 40 -90 90 -90c49 0 89 40 89 90v157c0 51 21 99 60 135c38 35 87 54 140 54zM800 140v89c0 28 -22 50 -50 50h-246c-55 0 -100 -40 -100 -89v-90h346c28 0 50 18 50 40z" />
    <glyph glyph-name="sadar.init" unicode="&#x635;" horiz-adv-x="712" arabic-form="initial" 
d="M291 379h246c83 0 150 -67 150 -150v-229h-446c-37 0 -72 10 -99 29l-6 5c-26 -21 -59 -34 -95 -34h-42v100h42c28 0 50 22 50 50v40c0 51 21 99 60 135c38 35 87 54 140 54zM587 100v129c0 28 -22 50 -50 50h-246c-55 0 -100 -40 -100 -89v-70c1 -5 18 -20 50 -20h346z
" />
    <glyph glyph-name="sadar.medi" unicode="&#x635;" horiz-adv-x="778" arabic-form="medial" 
d="M291 379h246c83 0 150 -67 150 -150v-79c0 -28 23 -50 50 -50h42v-100h-42c-37 0 -72 14 -98 37c-28 -24 -64 -37 -102 -37h-296c-37 0 -72 10 -100 29l-6 5c-25 -21 -58 -34 -94 -34h-42v100h42c27 0 50 22 50 50v40c0 51 21 99 60 135c37 35 87 54 140 54zM587 140v89
c0 28 -22 50 -50 50h-246c-55 0 -100 -40 -100 -89v-70c1 -5 18 -20 50 -20h296c27 0 50 18 50 40z" />
    <glyph glyph-name="seenar.fina" unicode="&#x633;" horiz-adv-x="895" arabic-form="final" 
d="M704 150v179c0 28 22 50 50 50s50 -22 50 -50v-179c0 -27 22 -50 50 -50h42v-100h-42c-38 0 -73 14 -100 38c-27 -24 -62 -38 -100 -38s-73 14 -100 38c-27 -24 -62 -38 -100 -38c-18 0 -35 3 -51 9c-12 -94 -92 -166 -189 -166c-104 0 -189 85 -189 190
c0 42 14 83 40 116c17 22 48 26 70 9s26 -49 9 -70c-13 -16 -19 -35 -19 -55c0 -50 40 -90 89 -90c50 0 90 40 90 90v296c0 28 22 50 50 50s50 -22 50 -50v-179c0 -27 22 -50 50 -50c27 0 50 23 50 50v179c0 28 22 50 50 50s50 -22 50 -50v-179c0 -27 22 -50 50 -50
c27 0 50 23 50 50z" />
    <glyph glyph-name="seenar.init" unicode="&#x633;" horiz-adv-x="616" arabic-form="initial" 
d="M491 150v179c0 28 22 50 50 50c27 0 50 -22 50 -50v-179c0 -83 -68 -150 -150 -150c-39 0 -74 14 -100 38c-27 -24 -62 -38 -100 -38c-39 0 -74 14 -100 38c-27 -24 -62 -38 -100 -38h-42v100h42c27 0 50 22 50 50v179c0 28 22 50 50 50c27 0 50 -22 50 -50v-179
c0 -28 22 -50 50 -50c27 0 50 22 50 50v179c0 28 22 50 50 50c27 0 50 -22 50 -50v-179c0 -28 22 -50 50 -50c27 0 50 22 50 50z" />
    <glyph glyph-name="seenar.medi" unicode="&#x633;" horiz-adv-x="681" arabic-form="medial" 
d="M491 150v179c0 28 22 50 50 50c27 0 50 -22 50 -50v-179c0 -28 22 -50 50 -50h41v-100h-41c-39 0 -74 14 -100 38c-27 -24 -62 -38 -100 -38c-39 0 -74 14 -100 38c-27 -24 -62 -38 -100 -38c-39 0 -74 14 -100 38c-27 -24 -62 -38 -100 -38h-42v100h42c27 0 50 22 50 50
v179c0 28 22 50 50 50c27 0 50 -22 50 -50v-179c0 -28 22 -50 50 -50c27 0 50 22 50 50v179c0 28 22 50 50 50c27 0 50 -22 50 -50v-179c0 -28 22 -50 50 -50c27 0 50 22 50 50z" />
    <glyph glyph-name="sheenar.fina" unicode="&#x634;" horiz-adv-x="895" arabic-form="final" 
d="M554 714c31 0 56 -25 56 -56s-25 -56 -56 -56s-57 25 -57 56s26 56 57 56zM487 602c31 0 56 -26 56 -57s-25 -56 -56 -56c-32 0 -57 25 -57 56s25 57 57 57zM621 602c31 0 57 -26 57 -57s-26 -56 -57 -56s-56 25 -56 56s25 57 56 57zM704 150v179c0 28 22 50 50 50
s50 -22 50 -50v-179c0 -27 22 -50 50 -50h42v-100h-42c-38 0 -73 14 -100 38c-27 -24 -62 -38 -100 -38s-73 14 -100 38c-27 -24 -62 -38 -100 -38c-18 0 -35 3 -51 9c-12 -94 -92 -166 -189 -166c-104 0 -189 85 -189 190c0 42 14 83 40 116c17 22 48 26 70 9s26 -49 9 -70
c-13 -16 -19 -35 -19 -55c0 -50 40 -90 89 -90c50 0 90 40 90 90v296c0 28 22 50 50 50s50 -22 50 -50v-179c0 -27 22 -50 50 -50c27 0 50 23 50 50v179c0 28 22 50 50 50s50 -22 50 -50v-179c0 -27 22 -50 50 -50c27 0 50 23 50 50z" />
    <glyph glyph-name="sheenar.init" unicode="&#x634;" horiz-adv-x="616" arabic-form="initial" 
d="M341 714c31 0 56 -25 56 -56s-25 -57 -56 -57s-57 26 -57 57s26 56 57 56zM273 601c32 0 57 -25 57 -56s-25 -56 -57 -56c-31 0 -56 25 -56 56s25 56 56 56zM408 601c31 0 56 -25 56 -56s-25 -56 -56 -56s-56 25 -56 56s25 56 56 56zM491 150v179c0 28 22 50 50 50
c27 0 50 -22 50 -50v-179c0 -83 -68 -150 -150 -150c-39 0 -74 14 -100 38c-27 -24 -62 -38 -100 -38c-39 0 -74 14 -100 38c-27 -24 -62 -38 -100 -38h-42v100h42c27 0 50 22 50 50v179c0 28 22 50 50 50c27 0 50 -22 50 -50v-179c0 -28 22 -50 50 -50c27 0 50 22 50 50
v179c0 28 22 50 50 50c27 0 50 -22 50 -50v-179c0 -28 22 -50 50 -50c27 0 50 22 50 50z" />
    <glyph glyph-name="sheenar.medi" unicode="&#x634;" horiz-adv-x="681" arabic-form="medial" 
d="M341 714c31 0 56 -25 56 -56s-25 -57 -56 -57s-57 26 -57 57s26 56 57 56zM273 601c32 0 57 -25 57 -56s-25 -56 -57 -56c-31 0 -56 25 -56 56s25 56 56 56zM408 601c31 0 56 -25 56 -56s-25 -56 -56 -56s-56 25 -56 56s25 56 56 56zM491 150v179c0 28 22 50 50 50
c27 0 50 -22 50 -50v-179c0 -28 22 -50 50 -50h41v-100h-41c-39 0 -74 14 -100 38c-27 -24 -62 -38 -100 -38c-39 0 -74 14 -100 38c-27 -24 -62 -38 -100 -38c-39 0 -74 14 -100 38c-27 -24 -62 -38 -100 -38h-42v100h42c27 0 50 22 50 50v179c0 28 22 50 50 50
c27 0 50 -22 50 -50v-179c0 -28 22 -50 50 -50c27 0 50 22 50 50v179c0 28 22 50 50 50c27 0 50 -22 50 -50v-179c0 -28 22 -50 50 -50c27 0 50 22 50 50z" />
    <glyph glyph-name="tahar.fina" unicode="&#x637;" horiz-adv-x="737" arabic-form="final" 
d="M50 0v602c0 28 22 50 50 50s50 -22 50 -50v-248c30 16 64 25 100 25h246c83 0 150 -67 150 -150v-79c0 -28 23 -50 50 -50h42v-100h-42c-37 0 -72 14 -98 37c-28 -24 -64 -37 -102 -37h-446zM546 140v89c0 28 -22 50 -50 50h-246c-55 0 -100 -40 -100 -89v-90h346
c28 0 50 18 50 40z" />
    <glyph glyph-name="tahar.init" unicode="&#x637;" horiz-adv-x="712" arabic-form="initial" 
d="M91 150v452c0 28 22 50 50 50c27 0 50 -22 50 -50v-248c30 16 64 25 100 25h246c83 0 150 -67 150 -150v-229h-446c-37 0 -72 10 -100 29l-6 5c-25 -21 -58 -34 -94 -34h-42v100h42c27 0 50 22 50 50zM587 100v129c0 28 -22 50 -50 50h-246c-55 0 -100 -40 -100 -89v-70
c1 -5 18 -20 50 -20h346z" />
    <glyph glyph-name="tahar.medi" unicode="&#x637;" horiz-adv-x="778" arabic-form="medial" 
d="M91 150v452c0 28 22 50 50 50c27 0 50 -22 50 -50v-248c30 16 64 25 100 25h246c83 0 150 -67 150 -150v-79c0 -28 23 -50 50 -50h42v-100h-42c-37 0 -72 14 -98 37c-28 -24 -64 -37 -102 -37h-296c-37 0 -72 10 -100 29l-6 5c-25 -21 -58 -34 -94 -34h-42v100h42
c27 0 50 22 50 50zM587 140v89c0 28 -22 50 -50 50h-246c-55 0 -100 -40 -100 -89v-70c1 -5 18 -20 50 -20h296c27 0 50 18 50 40z" />
    <glyph glyph-name="tchehar.fina" unicode="&#x686;" horiz-adv-x="699" arabic-form="final" 
d="M225 379h166c58 0 112 -22 153 -62c41 -41 64 -94 64 -152v-15c0 -28 22 -50 50 -50h42v-100h-42c-35 0 -67 12 -92 32c-4 -3 -8 -6 -12 -8c-27 -16 -61 -24 -96 -24h-142c-105 0 -191 -85 -191 -190c0 -28 -23 -50 -50 -50c-28 0 -50 22 -50 50c0 77 30 150 85 205
s128 85 206 85h142c27 0 44 8 50 13v52c0 63 -52 114 -117 114h-166c-55 0 -100 -40 -100 -89c0 -28 -23 -50 -50 -50c-28 0 -50 22 -50 50c0 51 21 99 60 135c37 35 87 54 140 54zM343 -52c32 0 57 -26 57 -57s-25 -56 -57 -56c-31 0 -56 25 -56 56s25 57 56 57zM478 -52
c31 0 56 -26 56 -57s-25 -56 -56 -56s-56 25 -56 56s25 57 56 57zM411 -165c31 0 56 -25 56 -56s-25 -56 -56 -56s-57 25 -57 56s26 56 57 56z" />
    <glyph glyph-name="tchehar.init" unicode="&#x686;" horiz-adv-x="642" arabic-form="initial" 
d="M234 379h167c57 0 112 -22 152 -62c42 -41 64 -94 64 -152v-165h-618v100h518v65c0 63 -52 114 -116 114h-167c-55 0 -100 -40 -100 -89c0 -28 -22 -50 -50 -50s-50 22 -50 50c0 51 21 99 60 135c38 35 87 54 140 54zM258 -52c31 0 57 -26 57 -57s-26 -56 -57 -56
s-56 25 -56 56s25 57 56 57zM393 -52c31 0 56 -26 56 -57s-25 -56 -56 -56s-57 25 -57 56s26 57 57 57zM326 -165c31 0 56 -25 56 -56s-25 -56 -56 -56c-32 0 -57 25 -57 56s25 56 57 56z" />
    <glyph glyph-name="tchehar.medi" unicode="&#x686;" horiz-adv-x="708" arabic-form="medial" 
d="M234 379h166c58 0 112 -22 153 -62c41 -41 64 -94 64 -152v-15c0 -28 22 -50 50 -50h42v-100h-42c-32 0 -63 10 -87 28c-20 -17 -47 -28 -76 -28h-505v100h505c8 0 13 5 13 8v57c0 63 -52 114 -117 114h-166c-55 0 -100 -40 -100 -89c0 -28 -22 -50 -50 -50
s-50 22 -50 50c0 51 21 99 60 135c37 35 87 54 140 54zM258 -52c31 0 57 -26 57 -57s-26 -56 -57 -56s-56 25 -56 56s25 57 56 57zM393 -52c31 0 56 -26 56 -57s-25 -56 -56 -56s-57 25 -57 56s26 57 57 57zM325 -165c32 0 57 -25 57 -57c0 -31 -25 -56 -57 -56
c-31 0 -56 25 -56 56c0 32 25 57 56 57z" />
    <glyph glyph-name="tehar.fina" unicode="&#x62a;" horiz-adv-x="683" arabic-form="final" 
d="M241 602c31 0 57 -25 57 -56c0 -32 -26 -57 -57 -57s-56 25 -56 57c0 31 25 56 56 56zM376 602c31 0 56 -25 56 -56c0 -32 -25 -57 -56 -57s-57 25 -57 57c0 31 26 56 57 56zM492 150v179c0 27 22 50 50 50s50 -23 50 -50v-179v-3c2 -26 23 -47 50 -47h42v-100h-42
c-38 0 -73 14 -100 38c-27 -24 -62 -38 -100 -38h-267c-83 0 -150 67 -150 150v179c0 27 22 50 50 50c27 0 50 -23 50 -50v-179c0 -28 22 -50 50 -50h267c27 0 48 21 50 47v3z" />
    <glyph glyph-name="tehar.init" unicode="&#x62a;" horiz-adv-x="301" arabic-form="initial" 
d="M85 602c31 0 56 -25 56 -56c0 -32 -25 -57 -56 -57c-32 0 -57 25 -57 57c0 31 25 56 57 56zM219 602c31 0 57 -25 57 -56c0 -32 -26 -57 -57 -57s-56 25 -56 57c0 31 25 56 56 56zM176 150v179c0 27 22 50 50 50c27 0 50 -23 50 -50v-179c0 -83 -68 -150 -150 -150h-127
v100h127c27 0 50 22 50 50z" />
    <glyph glyph-name="tehar.medi" unicode="&#x62a;" horiz-adv-x="281" arabic-form="medial" 
d="M73 602c32 0 57 -25 57 -56s-25 -57 -57 -57c-31 0 -56 26 -56 57s25 56 56 56zM208 602c31 0 56 -25 56 -56s-25 -57 -56 -57s-56 26 -56 57s25 56 56 56zM91 150v179c0 28 22 50 50 50c27 0 50 -22 50 -50v-179c0 -28 22 -50 50 -50h41v-100h-41c-39 0 -74 14 -100 38
c-27 -24 -62 -38 -100 -38h-42v100h42c27 0 50 22 50 50z" />
    <glyph glyph-name="tehmarbutaar.fina" unicode="&#x629;" horiz-adv-x="495" arabic-form="final" 
d="M147 602c31 0 57 -25 57 -56s-26 -57 -57 -57s-56 26 -56 57s25 56 56 56zM282 602c31 0 56 -25 56 -56s-25 -57 -56 -57s-57 26 -57 57s26 56 57 56zM496 0h-42c-44 0 -84 19 -112 50c-33 -31 -78 -50 -127 -50c-105 0 -190 85 -190 190c0 104 85 189 190 189
c104 0 189 -85 189 -189v-40c0 -28 22 -50 50 -50h42v-100zM215 279c-50 0 -90 -40 -90 -89c0 -50 40 -90 90 -90c49 0 89 40 89 90c0 49 -40 89 -89 89z" />
    <glyph glyph-name="thalar.fina" unicode="&#x630;" horiz-adv-x="510" arabic-form="final" 
d="M230 602c31 0 56 -25 56 -56s-25 -57 -56 -57c-32 0 -57 26 -57 57s25 56 57 56zM190 379h79c83 0 150 -67 150 -150v-79c0 -28 22 -50 50 -50h42v-100h-42c-38 0 -73 14 -100 38c-27 -24 -62 -38 -100 -38h-179c-28 0 -50 22 -50 50s22 50 50 50h179c28 0 50 22 50 50
v79c0 28 -22 50 -50 50h-79c-28 0 -50 -22 -50 -50s-22 -50 -50 -50s-50 22 -50 50c0 83 67 150 150 150z" />
    <glyph glyph-name="thehar.fina" unicode="&#x62b;" horiz-adv-x="683" arabic-form="final" 
d="M308 716c32 0 57 -25 57 -57c0 -31 -25 -56 -57 -56c-31 0 -56 25 -56 56c0 32 25 57 56 57zM241 602c31 0 57 -25 57 -56c0 -32 -26 -57 -57 -57s-56 25 -56 57c0 31 25 56 56 56zM376 602c31 0 56 -25 56 -56c0 -32 -25 -57 -56 -57s-57 25 -57 57c0 31 26 56 57 56z
M492 150v179c0 27 22 50 50 50s50 -23 50 -50v-179v-3c2 -26 23 -47 50 -47h42v-100h-42c-38 0 -73 14 -100 38c-27 -24 -62 -38 -100 -38h-267c-83 0 -150 67 -150 150v179c0 27 22 50 50 50c27 0 50 -23 50 -50v-179c0 -28 22 -50 50 -50h267c27 0 48 21 50 47v3z" />
    <glyph glyph-name="thehar.init" unicode="&#x62b;" horiz-adv-x="301" arabic-form="initial" 
d="M152 716c31 0 56 -25 56 -57c0 -31 -25 -56 -56 -56s-57 25 -57 56c0 32 26 57 57 57zM85 602c31 0 56 -25 56 -56c0 -32 -25 -57 -56 -57c-32 0 -57 25 -57 57c0 31 25 56 57 56zM219 602c31 0 57 -25 57 -56c0 -32 -26 -57 -57 -57s-56 25 -56 57c0 31 25 56 56 56z
M176 150v179c0 27 22 50 50 50c27 0 50 -23 50 -50v-179c0 -83 -68 -150 -150 -150h-127v100h127c27 0 50 22 50 50z" />
    <glyph glyph-name="thehar.medi" unicode="&#x62b;" horiz-adv-x="281" arabic-form="medial" 
d="M141 716c31 0 56 -25 56 -56c0 -32 -25 -57 -56 -57s-57 25 -57 57c0 31 26 56 57 56zM73 602c32 0 57 -25 57 -56s-25 -57 -57 -57c-31 0 -56 26 -56 57s25 56 56 56zM208 602c31 0 56 -25 56 -56s-25 -57 -56 -57s-56 26 -56 57s25 56 56 56zM91 150v179
c0 28 22 50 50 50c27 0 50 -22 50 -50v-179c0 -28 22 -50 50 -50h41v-100h-41c-39 0 -74 14 -100 38c-27 -24 -62 -38 -100 -38h-42v100h42c27 0 50 22 50 50z" />
    <glyph glyph-name="vehar.fina" unicode="&#x6a4;" horiz-adv-x="651" arabic-form="final" 
d="M418 712c32 0 57 -26 57 -57s-25 -56 -57 -56c-31 0 -56 25 -56 56s25 57 56 57zM351 602c31 0 57 -25 57 -56s-26 -56 -57 -56s-56 25 -56 56s25 56 56 56zM486 602c31 0 56 -25 56 -56s-25 -56 -56 -56s-57 25 -57 56s26 56 57 56zM175 100h61c-15 27 -23 57 -23 90
c0 104 85 189 190 189c104 0 189 -85 189 -189v-90h60v-100h-477c-83 0 -150 67 -150 150v179c0 28 22 50 50 50s50 -22 50 -50v-179c0 -28 22 -50 50 -50zM492 100v90c0 49 -40 89 -89 89c-50 0 -90 -40 -90 -89c0 -50 40 -90 90 -90h89z" />
    <glyph glyph-name="vehar.init" unicode="&#x6a4;" horiz-adv-x="448" arabic-form="initial" 
d="M233 715c31 0 57 -26 57 -57s-26 -56 -57 -56s-56 25 -56 56s25 57 56 57zM166 602c31 0 56 -25 56 -56s-25 -56 -56 -56s-56 25 -56 56s25 56 56 56zM301 602c31 0 56 -25 56 -56s-25 -56 -56 -56c-32 0 -57 25 -57 56s25 56 57 56zM-1 100h67c-14 27 -22 57 -22 90
c0 104 85 189 189 189c105 0 190 -85 190 -189v-190h-424v100zM323 100v90c0 49 -40 89 -90 89c-49 0 -89 -40 -89 -89c0 -50 40 -90 89 -90h90z" />
    <glyph glyph-name="vehar.medi" unicode="&#x6a4;" horiz-adv-x="462" arabic-form="medial" 
d="M233 715c31 0 57 -25 57 -56s-26 -57 -57 -57s-56 26 -56 57s25 56 56 56zM166 602c31 0 56 -25 56 -56s-25 -56 -56 -56s-56 25 -56 56s25 56 56 56zM301 602c31 0 56 -25 56 -56s-25 -56 -56 -56c-32 0 -57 25 -57 56s25 56 57 56zM-1 100h67c-14 27 -22 57 -22 90
c0 104 85 189 189 189c105 0 190 -85 190 -189v-90h40v-100h-464v100zM323 100v90c0 49 -40 89 -90 89c-49 0 -89 -40 -89 -89c0 -50 40 -90 89 -90h90z" />
    <glyph glyph-name="wawar.fina" unicode="&#x648;" horiz-adv-x="451" arabic-form="final" 
d="M293 0h-79c-104 0 -189 85 -189 189c0 105 85 190 189 190c105 0 190 -85 190 -190v-89h48v-100h-52c-4 -16 -10 -31 -18 -46c-14 -25 -33 -46 -56 -64c-47 -36 -108 -55 -172 -55c-28 0 -50 22 -50 50s22 50 50 50c62 0 117 27 139 65zM304 100v89c0 50 -40 90 -90 90
c-49 0 -89 -40 -89 -90c0 -49 40 -89 89 -89h3h2h85z" />
    <glyph glyph-name="wawHamzaabovear.fina" unicode="&#x624;" horiz-adv-x="451" arabic-form="final" 
d="M167 594l121 44v-110c0 -14 -11 -25 -25 -25s-25 11 -25 25v39l-52 -19c-5 -2 -8 -6 -9 -9c-1 -5 1 -9 4 -14l36 -47c28 -2 56 -11 79 -27c12 -8 15 -24 7 -35c-5 -7 -13 -11 -21 -11c-5 0 -9 1 -14 4c-19 13 -40 19 -62 19h-3c-19 -1 -39 -7 -56 -19
c-11 -7 -27 -4 -35 7c-7 11 -4 27 7 35c13 8 26 15 41 20l-19 24c-12 17 -17 37 -12 56c5 18 18 34 37 43h1zM293 0h-79c-104 0 -189 85 -189 189c0 105 85 190 189 190c105 0 190 -85 190 -190v-89h48v-100h-52c-4 -16 -10 -31 -18 -46c-14 -25 -33 -46 -56 -64
c-47 -36 -108 -55 -172 -55c-28 0 -50 22 -50 50s22 50 50 50c62 0 117 27 139 65zM304 100v89c0 50 -40 90 -90 90c-49 0 -89 -40 -89 -90c0 -49 40 -89 89 -89h3h2h85z" />
    <glyph glyph-name="yehar.fina" unicode="&#x64a;" horiz-adv-x="828" arabic-form="final" 
d="M359 379h239c76 0 139 -63 139 -139v-90c0 -28 22 -50 50 -50h42v-100h-42c-83 0 -150 67 -150 150v90c0 21 -18 39 -39 39h-239v-39h233v-90c0 -83 -67 -150 -150 -150h-267c-83 0 -150 67 -150 150v179c0 28 22 50 50 50s50 -22 50 -50v-179c0 -28 23 -50 50 -50h267
c24 0 45 17 49 40h-132c-55 0 -100 45 -100 100v39c0 55 45 100 100 100zM241 -38c32 0 57 -25 57 -56s-25 -56 -57 -56c-31 0 -56 25 -56 56s25 56 56 56zM376 -38c31 0 56 -25 56 -56s-25 -56 -56 -56s-56 25 -56 56s25 56 56 56z" />
    <glyph glyph-name="yehar.init" unicode="&#x64a;" horiz-adv-x="301" arabic-form="initial" 
d="M176 150v179c0 27 22 50 50 50c27 0 50 -23 50 -50v-179c0 -83 -68 -150 -150 -150h-127v100h127c27 0 50 22 50 50zM85 -38c31 0 56 -25 56 -56s-25 -57 -56 -57c-32 0 -57 26 -57 57s25 56 57 56zM219 -38c31 0 57 -25 57 -56s-26 -57 -57 -57s-56 26 -56 57
s25 56 56 56z" />
    <glyph glyph-name="yehar.medi" unicode="&#x64a;" horiz-adv-x="281" arabic-form="medial" 
d="M91 150v179c0 28 22 50 50 50c27 0 50 -22 50 -50v-179c0 -28 22 -50 50 -50h41v-100h-41c-39 0 -74 14 -100 38c-27 -24 -62 -38 -100 -38h-42v100h42c27 0 50 22 50 50zM73 -38c32 0 57 -25 57 -56s-25 -57 -57 -57c-31 0 -56 26 -56 57s25 56 56 56zM208 -38
c31 0 56 -25 56 -56s-25 -57 -56 -57s-56 26 -56 57s25 56 56 56z" />
    <glyph glyph-name="uniFBFD" unicode="&#x6cc;" horiz-adv-x="828" arabic-form="final" 
d="M359 379h239c76 0 139 -63 139 -139v-90c0 -28 22 -50 50 -50h42v-100h-42c-83 0 -150 67 -150 150v90c0 21 -18 39 -39 39h-239v-39h233v-90c0 -83 -67 -150 -150 -150h-267c-83 0 -150 67 -150 150v179c0 28 22 50 50 50s50 -22 50 -50v-179c0 -28 23 -50 50 -50h267
c24 0 45 17 49 40h-132c-55 0 -100 45 -100 100v39c0 55 45 100 100 100z" />
    <glyph glyph-name="yehHamzaabovear.fina" unicode="&#x626;" horiz-adv-x="878" arabic-form="final" 
d="M84 594l122 44v-110c0 -14 -11 -25 -25 -25s-25 11 -25 25v39l-52 -19c-5 -2 -8 -6 -9 -10s0 -8 3 -13l36 -47c29 -2 56 -11 80 -27c11 -8 14 -24 6 -35c-4 -7 -12 -11 -20 -11c-5 0 -10 1 -14 4c-19 13 -41 19 -63 19h-2c-20 -1 -39 -7 -56 -19c-12 -7 -27 -5 -35 7
c-8 11 -5 27 6 35c13 8 27 15 41 19l-19 25c-12 17 -16 37 -12 56c5 18 18 34 37 43h1zM409 379h239c76 0 139 -63 139 -139v-90c0 -28 22 -50 50 -50h42v-100h-42c-83 0 -150 67 -150 150v90c0 21 -18 39 -39 39h-239v-39h233v-90c0 -83 -67 -150 -150 -150h-267
c-83 0 -150 67 -150 150v179c0 28 22 50 50 50s50 -22 50 -50v-179c0 -28 23 -50 50 -50h267c24 0 45 17 49 40h-132c-55 0 -100 45 -100 100v39c0 55 45 100 100 100z" />
    <glyph glyph-name="yehHamzaabovear.init" unicode="&#x626;" horiz-adv-x="284" arabic-form="initial" 
d="M118 594l122 44v-111c0 -13 -12 -25 -25 -25c-14 0 -25 12 -25 25v39l-53 -18c-4 -3 -7 -6 -8 -10s0 -9 3 -13l36 -48c29 -1 56 -10 80 -27c11 -7 14 -23 6 -34c-5 -7 -12 -11 -20 -11c-5 0 -10 1 -14 4c-19 13 -41 19 -63 19h-2c-20 -1 -39 -7 -57 -19
c-11 -8 -27 -5 -34 7c-8 11 -5 27 6 34c13 9 27 16 41 20l-19 25c-12 16 -16 37 -12 55c5 19 18 35 37 43zM106 150v179c0 27 22 50 50 50c27 0 50 -23 50 -50v-179c0 -83 -68 -150 -150 -150h-57v100h57c27 0 50 22 50 50z" />
    <glyph glyph-name="yehHamzaabovear.medi" unicode="&#x626;" horiz-adv-x="282" arabic-form="medial" 
d="M100 594l122 44v-111c0 -13 -12 -25 -25 -25c-14 0 -25 12 -25 25v39l-53 -18c-4 -3 -7 -6 -8 -10s0 -9 3 -13l36 -48c29 -1 56 -10 80 -27c11 -7 14 -23 6 -34c-5 -7 -12 -11 -20 -11c-5 0 -10 1 -14 4c-19 13 -41 19 -63 19h-2c-20 -1 -39 -7 -57 -19
c-11 -8 -27 -5 -34 7c-8 11 -5 27 6 34c13 9 27 16 41 20l-19 25c-12 16 -16 37 -12 55c5 19 18 35 37 43zM91 150v179c0 27 22 50 50 50s50 -23 50 -50v-179c0 -28 22 -50 50 -50h42v-100h-42c-38 0 -73 14 -100 38c-27 -24 -62 -38 -100 -38h-42v100h42c28 0 50 22 50 50z
" />
    <glyph glyph-name="zahar.fina" unicode="&#x638;" horiz-adv-x="737" arabic-form="final" 
d="M50 0v602c0 28 22 50 50 50s50 -22 50 -50v-248c30 16 64 25 100 25h246c83 0 150 -67 150 -150v-79c0 -28 23 -50 50 -50h42v-100h-42c-37 0 -72 14 -98 37c-28 -24 -64 -37 -102 -37h-446zM257 602c31 0 56 -25 56 -56s-25 -57 -56 -57s-57 26 -57 57s26 56 57 56z
M546 140v89c0 28 -22 50 -50 50h-246c-55 0 -100 -40 -100 -89v-90h346c28 0 50 18 50 40z" />
    <glyph glyph-name="zahar.init" unicode="&#x638;" horiz-adv-x="712" arabic-form="initial" 
d="M91 150v452c0 28 22 50 50 50c27 0 50 -22 50 -50v-248c30 16 64 25 100 25h246c83 0 150 -67 150 -150v-229h-446c-37 0 -72 10 -100 29l-6 5c-25 -21 -58 -34 -94 -34h-42v100h42c27 0 50 22 50 50zM297 602c32 0 57 -25 57 -56s-25 -57 -57 -57c-31 0 -56 26 -56 57
s25 56 56 56zM587 100v129c0 28 -22 50 -50 50h-246c-55 0 -100 -40 -100 -89v-70c1 -5 18 -20 50 -20h346z" />
    <glyph glyph-name="zahar.medi" unicode="&#x638;" horiz-adv-x="778" arabic-form="medial" 
d="M91 150v452c0 28 22 50 50 50c27 0 50 -22 50 -50v-248c30 16 64 25 100 25h246c83 0 150 -67 150 -150v-79c0 -28 23 -50 50 -50h42v-100h-42c-37 0 -72 14 -98 37c-28 -24 -64 -37 -102 -37h-296c-37 0 -72 10 -100 29l-6 5c-25 -21 -58 -34 -94 -34h-42v100h42
c27 0 50 22 50 50zM297 602c32 0 57 -25 57 -56s-25 -56 -57 -56c-31 0 -56 25 -56 56s25 56 56 56zM587 140v89c0 28 -22 50 -50 50h-246c-55 0 -100 -40 -100 -89v-70c1 -5 18 -20 50 -20h296c27 0 50 18 50 40z" />
    <glyph glyph-name="zainar.fina" unicode="&#x632;" horiz-adv-x="393" arabic-form="final" 
d="M199 602c31 0 57 -25 57 -56s-26 -57 -57 -57s-56 26 -56 57s25 56 56 56zM202 35v205c0 21 -18 39 -40 39c-28 0 -50 22 -50 50s22 50 50 50c77 0 140 -63 140 -139v-90c0 -28 22 -50 50 -50h42v-100h-42c-18 0 -35 3 -52 9c-5 -53 -27 -103 -63 -141
c-43 -46 -101 -71 -162 -71c-27 0 -50 22 -50 50c0 27 23 50 50 50c70 0 127 62 127 138z" />
    <glyph glyph-name=".notdef" horiz-adv-x="250" 
 />
    <glyph glyph-name="afii57534" unicode="&#x6d5;" 
d="M214 379c105 0 190 -85 190 -190c0 -104 -85 -189 -190 -189c-104 0 -189 85 -189 189c0 105 85 190 189 190zM214 279c-49 0 -89 -40 -89 -90c0 -49 40 -89 89 -89c50 0 90 40 90 89c0 50 -40 90 -90 90z" />
    <glyph glyph-name="afii57433" unicode="&#x639;" horiz-adv-x="664" 
d="M406 379h2c53 0 103 -19 140 -54c39 -36 60 -84 60 -136c0 -27 -22 -50 -50 -50c-27 0 -50 23 -50 50c0 50 -45 90 -100 90h-2c-64 0 -117 -51 -117 -114v-66c9 0 19 1 28 1h272c28 0 50 -22 50 -50s-22 -50 -50 -50h-272c-106 0 -192 -85 -192 -190
c0 -28 -22 -50 -50 -50s-50 22 -50 50c0 77 30 150 86 205c23 23 50 42 78 56v94c0 58 23 111 64 152c41 40 95 62 153 62z" />
    <glyph glyph-name="afii57415" unicode="&#x627;" horiz-adv-x="250" 
d="M75 50v552c0 28 23 50 50 50c28 0 50 -22 50 -50v-552c0 -28 -22 -50 -50 -50c-27 0 -50 22 -50 50z" />
    <glyph glyph-name="afii57411" unicode="&#x623;" horiz-adv-x="279" 
d="M98 868l122 44v-110c0 -14 -11 -25 -25 -25s-25 11 -25 25v39l-52 -19c-5 -2 -8 -6 -9 -10s0 -8 4 -13l35 -47c29 -2 56 -11 80 -27c11 -8 14 -24 7 -35c-5 -7 -13 -11 -21 -11c-5 0 -10 1 -14 4c-19 13 -41 19 -62 19h-3c-20 -1 -39 -7 -56 -19c-12 -7 -27 -4 -35 7
s-5 27 7 35s26 15 40 19l-18 25c-13 17 -17 37 -13 56c5 18 19 34 37 43h1zM89 50v552c0 28 23 50 50 50c28 0 50 -22 50 -50v-552c0 -28 -22 -50 -50 -50c-27 0 -50 22 -50 50z" />
    <glyph glyph-name="afii57410" unicode="&#x622;" horiz-adv-x="309" 
d="M213 734l32 22c11 8 27 5 35 -7c8 -11 5 -27 -7 -34l-59 -41l-14 10c-37 25 -84 25 -121 0c-12 -8 -27 -5 -35 6c-8 12 -5 27 7 35c26 18 57 27 88 27c26 0 51 -6 74 -18zM89 50v552c0 28 22 50 50 50s50 -22 50 -50v-552c0 -28 -22 -50 -50 -50s-50 22 -50 50z" />
    <glyph glyph-name="afii57449" unicode="&#x649;" horiz-adv-x="617" 
d="M358 379h184c28 0 50 -22 50 -50s-22 -50 -50 -50h-184v-39h234v-90c0 -83 -67 -150 -150 -150h-267c-83 0 -150 67 -150 150v179c0 28 22 50 50 50c27 0 50 -22 50 -50v-179c0 -28 22 -50 50 -50h267c24 0 44 17 49 40h-133c-55 0 -100 45 -100 100v39
c0 55 45 100 100 100z" />
    <glyph glyph-name="uni0671" unicode="&#x671;" horiz-adv-x="250" 
d="M75 50v552c0 28 23 50 50 50c28 0 50 -22 50 -50v-552c0 -28 -22 -50 -50 -50c-27 0 -50 22 -50 50z" />
    <glyph glyph-name="afii57413" unicode="&#x625;" horiz-adv-x="279" 
d="M89 50v552c0 28 23 50 50 50c28 0 50 -22 50 -50v-552c0 -28 -22 -50 -50 -50c-27 0 -50 22 -50 50zM98 -55l122 43v-110c0 -14 -11 -25 -25 -25s-25 11 -25 25v39l-52 -18c-5 -3 -8 -6 -9 -10s0 -9 4 -13l35 -48c29 -1 56 -11 80 -27c11 -8 14 -23 7 -35
c-5 -7 -13 -11 -21 -11c-5 0 -10 2 -14 5c-19 13 -41 19 -62 19c-1 -1 -2 -1 -3 -1c-20 0 -39 -7 -56 -18c-12 -8 -27 -5 -35 6c-8 12 -5 27 7 35c12 9 26 15 40 20l-18 25c-13 16 -17 36 -13 55c5 19 19 35 37 43z" />
    <glyph glyph-name="afii57416" unicode="&#x628;" horiz-adv-x="617" 
d="M492 150v179c0 27 22 50 50 50c27 0 50 -23 50 -50v-179c0 -83 -68 -150 -150 -150h-267c-83 0 -150 67 -150 150v179c0 27 22 50 50 50c27 0 50 -23 50 -50v-179c0 -28 22 -50 50 -50h267c27 0 50 22 50 50zM308 -38c31 0 57 -25 57 -57c0 -31 -26 -56 -57 -56
s-56 25 -56 56c0 32 25 57 56 57z" />
    <glyph glyph-name="afii57430" unicode="&#x636;" horiz-adv-x="925" 
d="M511 602c31 0 56 -25 56 -56s-25 -57 -56 -57s-57 26 -57 57s26 56 57 56zM504 379h246c83 0 150 -67 150 -150v-229h-499c-15 -89 -93 -157 -186 -157c-105 0 -190 85 -190 190c0 42 14 82 40 116c17 22 48 26 70 9s26 -49 9 -70c-12 -16 -19 -35 -19 -55
c0 -50 40 -90 90 -90c49 0 89 40 89 90v157c0 51 21 99 60 135c38 35 87 54 140 54zM800 100v129c0 28 -22 50 -50 50h-246c-55 0 -100 -40 -100 -89v-90h396z" />
    <glyph glyph-name="afii57423" unicode="&#x62f;" horiz-adv-x="444" 
d="M190 379h79c83 0 150 -67 150 -150v-229h-329c-28 0 -50 22 -50 50s22 50 50 50h229v129c0 28 -22 50 -50 50h-79c-27 0 -50 -22 -50 -50s-22 -50 -50 -50c-27 0 -50 22 -50 50c0 83 67 150 150 150z" />
    <glyph glyph-name="afii57512" unicode="&#x688;" horiz-adv-x="444" 
d="M143 488v210c0 10 8 17 18 17c9 0 17 -7 17 -17v-87c10 6 22 9 35 9h61c29 0 53 -23 53 -52v-80h-184zM292 523v45c0 10 -8 17 -18 17h-61c-19 0 -35 -14 -35 -31v-31h114zM190 379h79c83 0 150 -67 150 -150v-229h-329c-28 0 -50 22 -50 50s22 50 50 50h229v129
c0 28 -22 50 -50 50h-79c-27 0 -50 -22 -50 -50s-22 -50 -50 -50c-27 0 -50 22 -50 50c0 83 67 150 150 150z" />
    <glyph glyph-name="afii57441" unicode="&#x641;" horiz-adv-x="617" 
d="M418 602c32 0 57 -25 57 -56s-25 -57 -57 -57c-31 0 -56 26 -56 57s25 56 56 56zM175 100h61c-15 27 -23 57 -23 90c0 104 85 189 190 189c104 0 189 -85 189 -189v-190h-417c-83 0 -150 67 -150 150v179c0 28 22 50 50 50s50 -22 50 -50v-179c0 -28 22 -50 50 -50z
M492 100v90c0 49 -40 89 -89 89c-50 0 -90 -40 -90 -89c0 -50 40 -90 90 -90h89z" />
    <glyph glyph-name="afii57509" unicode="&#x6af;" horiz-adv-x="600" 
d="M37 362l293 330c18 21 50 23 70 5c21 -19 23 -50 5 -71l-293 -331c-10 -11 -23 -16 -37 -16c-12 0 -24 4 -33 12c-21 18 -23 50 -5 71zM147 279l366 413c18 21 50 23 70 5c21 -19 23 -50 5 -71l-240 -271c59 -32 99 -94 99 -166c0 -104 -85 -189 -189 -189
c-105 0 -190 85 -190 189c0 28 23 50 50 50c28 0 50 -22 50 -50c0 -49 40 -89 90 -89c49 0 89 40 89 89s-40 90 -89 90h-111z" />
    <glyph glyph-name="afii57434" unicode="&#x63a;" horiz-adv-x="664" 
d="M399 602c31 0 56 -25 56 -56s-25 -56 -56 -56s-57 25 -57 56s26 56 57 56zM406 379h2c53 0 103 -19 140 -54c39 -36 60 -84 60 -136c0 -27 -22 -50 -50 -50c-27 0 -50 23 -50 50c0 50 -45 90 -100 90h-2c-64 0 -117 -51 -117 -114v-66c9 0 19 1 28 1h272
c28 0 50 -22 50 -50s-22 -50 -50 -50h-272c-106 0 -192 -85 -192 -190c0 -28 -22 -50 -50 -50s-50 22 -50 50c0 77 30 150 86 205c23 23 50 42 78 56v94c0 58 23 111 64 152c41 40 95 62 153 62z" />
    <glyph glyph-name="afii57421" unicode="&#x62d;" horiz-adv-x="634" 
d="M225 379h167c58 0 112 -22 153 -62c41 -41 64 -94 64 -152v-165h-292c-106 0 -192 -85 -192 -190c0 -28 -22 -50 -50 -50c-27 0 -50 22 -50 50c0 77 31 150 86 205s128 85 206 85h192v65c0 63 -53 114 -117 114h-167c-55 0 -100 -40 -100 -89c0 -28 -22 -50 -50 -50
c-27 0 -50 22 -50 50c0 51 22 99 60 135c38 35 88 54 140 54z" />
    <glyph glyph-name="afii57409" unicode="&#x621;" horiz-adv-x="401" 
d="M132 294l215 77v-196c0 -28 -22 -50 -50 -50s-50 22 -50 50v54l-76 -27c-6 -3 -9 -7 -10 -11s0 -10 5 -15l57 -77c47 -4 92 -20 131 -46c23 -16 28 -47 13 -70c-10 -14 -25 -22 -41 -22c-10 0 -20 3 -28 9c-30 20 -63 30 -96 30h-4h-3c-32 -1 -64 -11 -92 -30
c-22 -16 -53 -10 -69 13s-10 54 13 70c20 13 40 23 62 31l-23 32c-23 29 -31 66 -22 100c8 33 33 62 66 77z" />
    <glyph glyph-name="uni06D3" unicode="&#x6d3;" horiz-adv-x="742" 
d="M278 594l122 44v-111c0 -13 -12 -25 -25 -25c-14 0 -25 12 -25 25v39l-53 -18c-4 -3 -7 -6 -8 -10s0 -9 3 -13l36 -48c29 -1 56 -10 80 -27c11 -7 14 -23 6 -34c-5 -7 -12 -11 -20 -11c-5 0 -10 1 -14 4c-19 13 -41 19 -63 19h-2c-20 -1 -39 -7 -57 -19
c-11 -8 -27 -5 -34 7c-8 11 -5 27 6 34c13 9 27 16 41 20l-19 25c-12 16 -16 37 -12 55c5 19 18 35 37 43zM242 240h166c53 0 103 -20 141 -55c25 -24 43 -53 52 -85h142v-100h-235v50c0 49 -44 90 -100 90h-166c-64 0 -117 -51 -117 -114v-94h434c27 0 50 -22 50 -50
c0 -27 -23 -50 -50 -50h-534v194c0 57 23 111 64 151s95 63 153 63z" />
    <glyph glyph-name="afii57470" unicode="&#x647;" 
d="M214 379c105 0 190 -85 190 -190c0 -104 -85 -189 -190 -189c-104 0 -189 85 -189 189c0 105 85 190 189 190zM214 279c-49 0 -89 -40 -89 -90c0 -49 40 -89 89 -89c50 0 90 40 90 89c0 50 -40 90 -90 90z" />
    <glyph glyph-name="uni06C1" unicode="&#x6c1;" horiz-adv-x="495" 
d="M305 150v40c0 49 -41 89 -90 89s-90 -40 -90 -89c0 -50 41 -90 90 -90c28 0 50 -22 50 -50c0 -27 -22 -50 -50 -50c-105 0 -190 85 -190 190c0 104 85 189 190 189c104 0 190 -85 190 -189v-40c0 -27 22 -50 50 -50h41v-100h-41c-83 0 -150 67 -150 150z" />
    <glyph glyph-name="uni06BE" unicode="&#x6be;" horiz-adv-x="641" 
d="M75 100h113c-35 44 -53 99 -53 156c0 68 26 132 75 181c48 48 112 74 180 74c69 0 133 -26 181 -74c49 -49 75 -113 75 -181v-256h-571c-28 0 -50 22 -50 50s22 50 50 50zM546 100v156c0 86 -70 155 -156 155c-36 0 -69 -12 -95 -32c97 -8 174 -90 174 -189v-90h77z
M369 102v88c0 49 -41 89 -90 89c-15 0 -31 -4 -44 -11v-12c0 -79 58 -144 134 -154z" />
    <glyph glyph-name="uni06C2" unicode="&#x6c2;" horiz-adv-x="495" 
d="M175 594l122 44v-111c0 -13 -12 -25 -25 -25c-14 0 -25 12 -25 25v39l-53 -18c-4 -3 -7 -6 -8 -10s0 -9 3 -13l36 -48c29 -1 56 -10 80 -27c11 -7 14 -23 6 -34c-5 -7 -12 -11 -20 -11c-5 0 -10 1 -14 4c-19 13 -41 19 -63 19h-2c-20 -1 -39 -7 -57 -19
c-11 -8 -27 -5 -34 7c-8 11 -5 27 6 34c13 9 27 16 41 20l-19 25c-12 16 -16 37 -12 55c5 19 18 35 37 43zM305 150v40c0 49 -41 89 -90 89s-90 -40 -90 -89c0 -50 41 -90 90 -90c28 0 50 -22 50 -50c0 -27 -22 -50 -50 -50c-105 0 -190 85 -190 190c0 104 85 189 190 189
c104 0 190 -85 190 -189v-40c0 -27 22 -50 50 -50h41v-100h-41c-83 0 -150 67 -150 150z" />
    <glyph glyph-name="uni0674" unicode="&#x674;" horiz-adv-x="250" 
d="M84 777l122 44v-111c0 -13 -12 -25 -25 -25c-14 0 -25 12 -25 25v39l-53 -18c-4 -3 -7 -6 -8 -10s0 -9 3 -13l36 -48c29 -1 56 -10 80 -27c11 -7 14 -23 6 -34c-5 -7 -12 -11 -20 -11c-5 0 -10 1 -14 4c-19 13 -41 19 -63 19h-2c-20 -1 -39 -7 -57 -19
c-11 -8 -27 -5 -34 7c-8 11 -5 27 6 34c13 9 27 16 41 20l-19 25c-12 16 -16 37 -12 55c5 19 18 35 37 43z" />
    <glyph glyph-name="uni06C0" unicode="&#x6c0;" 
d="M175 594l122 44v-111c0 -13 -12 -25 -25 -25c-14 0 -25 12 -25 25v39l-53 -18c-4 -3 -7 -6 -8 -10s0 -9 3 -13l36 -48c29 -1 56 -10 80 -27c11 -7 14 -23 6 -34c-5 -7 -12 -11 -20 -11c-5 0 -10 1 -14 4c-19 13 -41 19 -63 19h-2c-20 -1 -39 -7 -57 -19
c-11 -8 -27 -5 -34 7c-8 11 -5 27 6 34c13 9 27 16 41 20l-19 25c-12 16 -16 37 -12 55c5 19 18 35 37 43zM214 379c105 0 190 -85 190 -190c0 -104 -85 -189 -190 -189c-104 0 -189 85 -189 189c0 105 85 190 189 190zM214 279c-49 0 -89 -40 -89 -90c0 -49 40 -89 89 -89
c50 0 90 40 90 89c0 50 -40 90 -90 90z" />
    <glyph glyph-name="afii57420" unicode="&#x62c;" horiz-adv-x="634" 
d="M225 379h167c58 0 112 -22 153 -62c41 -41 64 -94 64 -152v-165h-292c-106 0 -192 -85 -192 -190c0 -28 -22 -50 -50 -50c-27 0 -50 22 -50 50c0 77 31 150 86 205s128 85 206 85h192v65c0 63 -53 114 -117 114h-167c-55 0 -100 -40 -100 -89c0 -28 -22 -50 -50 -50
c-27 0 -50 22 -50 50c0 51 22 99 60 135c38 35 88 54 140 54zM411 -52c31 0 56 -25 56 -57c0 -31 -25 -56 -56 -56s-57 25 -57 56c0 32 26 57 57 57z" />
    <glyph glyph-name="afii57508" unicode="&#x698;" horiz-adv-x="347" 
d="M199 715c31 0 56 -26 56 -57s-25 -56 -56 -56s-57 25 -57 56s26 57 57 57zM131 602c32 0 57 -25 57 -57c0 -31 -25 -56 -57 -56c-31 0 -56 25 -56 56c0 32 25 57 56 57zM266 602c31 0 56 -25 56 -57c0 -31 -25 -56 -56 -56s-56 25 -56 56c0 32 25 57 56 57zM202 36v204
c0 22 -19 39 -41 39c-27 0 -50 23 -50 50c0 28 23 50 50 50c78 0 141 -62 141 -139v-204c0 -63 -24 -123 -66 -168c-43 -46 -100 -71 -161 -71c-28 0 -50 22 -50 50s22 50 50 50c70 0 127 62 127 139z" />
    <glyph glyph-name="afii57443" unicode="&#x643;" horiz-adv-x="576" 
d="M426 150v452c0 28 22 50 50 50c27 0 50 -22 50 -50v-452c0 -83 -68 -150 -150 -150h-151c-83 0 -150 67 -150 150v179c0 28 22 50 50 50c27 0 50 -22 50 -50v-179c0 -28 22 -50 50 -50h151c27 0 50 22 50 50zM84 594l121 44v-110c0 -14 -11 -25 -25 -25s-25 11 -25 25v39
l-52 -19c-5 -2 -8 -6 -9 -10s1 -8 4 -13l36 -47c28 -2 56 -11 79 -27c12 -8 15 -24 7 -35c-8 -12 -23 -14 -35 -7c-19 13 -40 19 -62 19h-2h-1c-19 -1 -39 -7 -56 -19c-4 -3 -9 -4 -14 -4c-8 0 -16 4 -21 11c-7 11 -4 27 7 35c13 8 26 15 41 19l-19 25c-12 17 -17 37 -12 56
c5 18 18 34 37 43h1z" />
    <glyph glyph-name="uni06A9" unicode="&#x6a9;" horiz-adv-x="557" 
d="M104 279l366 413c18 21 50 23 70 5c21 -19 23 -50 5 -71l-240 -271c59 -32 99 -94 99 -166c0 -104 -85 -189 -189 -189c-105 0 -190 85 -190 189c0 28 23 50 50 50c28 0 50 -22 50 -50c0 -49 40 -89 90 -89c49 0 89 40 89 89s-40 90 -89 90h-111z" />
    <glyph glyph-name="afii57422" unicode="&#x62e;" horiz-adv-x="634" 
d="M314 602c31 0 57 -25 57 -56s-26 -56 -57 -56s-56 25 -56 56s25 56 56 56zM225 379h167c58 0 112 -22 153 -62c41 -41 64 -94 64 -152v-165h-292c-106 0 -192 -85 -192 -190c0 -28 -22 -50 -50 -50c-27 0 -50 22 -50 50c0 77 31 150 86 205s128 85 206 85h192v65
c0 63 -53 114 -117 114h-167c-55 0 -100 -40 -100 -89c0 -28 -22 -50 -50 -50c-27 0 -50 22 -50 50c0 51 22 99 60 135c38 35 88 54 140 54z" />
    <glyph glyph-name="afii57444" unicode="&#x644;" horiz-adv-x="454" 
d="M304 26v576c0 28 23 50 50 50c28 0 50 -22 50 -50v-576c0 -104 -85 -189 -189 -189c-105 0 -190 85 -190 189c0 43 14 83 40 117c17 21 49 25 70 8c22 -17 26 -48 9 -70c-12 -16 -19 -35 -19 -55c0 -49 40 -89 90 -89c49 0 89 40 89 89z" />
    <glyph glyph-name="afii57445" unicode="&#x645;" horiz-adv-x="651" 
d="M247 150v179c0 28 22 50 50 50c19 0 35 -10 44 -26c28 17 61 26 96 26c104 0 189 -85 189 -189c0 -105 -85 -190 -189 -190c-50 0 -95 19 -128 50c-28 -30 -68 -50 -112 -50h-122c-27 0 -50 23 -50 50c0 28 23 50 50 50h122c28 0 50 23 50 50zM437 279
c-50 0 -90 -40 -90 -89c0 -50 40 -90 90 -90c49 0 89 40 89 90c0 49 -40 89 -89 89z" />
    <glyph glyph-name="afii57446" unicode="&#x646;" 
d="M215 489c31 0 56 -26 56 -57s-25 -56 -56 -56c-32 0 -57 25 -57 56s25 57 57 57zM304 24v157c0 28 22 50 50 50s50 -22 50 -50v-157c0 -104 -85 -189 -189 -189c-105 0 -190 85 -190 189c0 43 14 83 40 116c17 22 48 26 70 9s26 -48 9 -70c-12 -16 -19 -35 -19 -55
c0 -49 40 -89 90 -89c49 0 89 40 89 89z" />
    <glyph glyph-name="afii57514" unicode="&#x6ba;" 
d="M304 -17v157c0 28 22 50 50 50s50 -22 50 -50v-157c0 -104 -85 -189 -189 -189c-105 0 -190 85 -190 189c0 43 14 83 40 116c17 22 48 26 70 9s26 -48 9 -70c-12 -16 -19 -35 -19 -55c0 -49 40 -89 90 -89c49 0 89 40 89 89z" />
    <glyph glyph-name="afii57506" unicode="&#x67e;" horiz-adv-x="617" 
d="M492 150v179c0 27 22 50 50 50c27 0 50 -23 50 -50v-179c0 -83 -68 -150 -150 -150h-267c-83 0 -150 67 -150 150v179c0 27 22 50 50 50c27 0 50 -23 50 -50v-179c0 -28 22 -50 50 -50h267c27 0 50 22 50 50zM241 -38c31 0 56 -25 56 -57c0 -31 -25 -56 -56 -56
s-57 25 -57 56c0 32 26 57 57 57zM375 -38c32 0 57 -25 57 -57c0 -31 -25 -56 -57 -56c-31 0 -56 25 -56 56c0 32 25 57 56 57zM308 -151c31 0 57 -25 57 -56c0 -32 -26 -57 -57 -57s-56 25 -56 57c0 31 25 56 56 56z" />
    <glyph glyph-name="afii57442" unicode="&#x642;" horiz-adv-x="617" 
d="M335 602c32 0 57 -25 57 -56s-25 -57 -57 -57c-31 0 -56 26 -56 57s25 56 56 56zM470 602c31 0 56 -25 56 -56s-25 -57 -56 -57s-57 26 -57 57s26 56 57 56zM275 -65h67c74 0 137 38 148 86c-26 -13 -56 -21 -87 -21c-105 0 -190 85 -190 189c0 105 85 190 190 190
c104 0 189 -85 189 -190v-152c0 -29 -7 -57 -22 -83c-13 -25 -32 -46 -56 -64c-47 -36 -108 -55 -172 -55h-67c-64 0 -124 18 -170 50c-24 17 -43 37 -57 59c-15 25 -23 52 -23 80v140c0 28 22 50 50 50s50 -22 50 -50v-140c0 -27 23 -48 37 -57c29 -20 70 -32 113 -32z
M403 279c-50 0 -90 -40 -90 -90c0 -49 40 -89 90 -89c49 0 89 40 89 89c0 50 -40 90 -89 90z" />
    <glyph glyph-name="afii57425" unicode="&#x631;" horiz-adv-x="327" 
d="M202 36v204c0 22 -19 39 -41 39c-27 0 -50 23 -50 50c0 28 23 50 50 50c78 0 141 -62 141 -139v-204c0 -63 -24 -123 -66 -168c-43 -46 -100 -71 -161 -71c-28 0 -50 22 -50 50s22 50 50 50c70 0 127 62 127 139z" />
    <glyph glyph-name="afii57513" unicode="&#x691;" horiz-adv-x="327" 
d="M116 488v210c0 10 8 17 18 17c9 0 17 -7 17 -17v-87c10 6 22 9 35 9h61c29 0 53 -23 53 -52v-80h-184zM265 523v45c0 10 -8 17 -18 17h-61c-19 0 -35 -14 -35 -31v-31h114zM202 36v204c0 22 -19 39 -41 39c-27 0 -50 23 -50 50c0 28 23 50 50 50c78 0 141 -62 141 -139
v-204c0 -63 -24 -123 -66 -168c-43 -46 -100 -71 -161 -71c-28 0 -50 22 -50 50s22 50 50 50c70 0 127 62 127 139z" />
    <glyph glyph-name="afii57429" unicode="&#x635;" horiz-adv-x="925" 
d="M504 379h246c83 0 150 -67 150 -150v-229h-499c-15 -89 -93 -157 -186 -157c-105 0 -190 85 -190 190c0 42 14 82 40 116c17 22 48 26 70 9s26 -49 9 -70c-12 -16 -19 -35 -19 -55c0 -50 40 -90 90 -90c49 0 89 40 89 90v157c0 51 21 99 60 135c38 35 87 54 140 54z
M800 100v129c0 28 -22 50 -50 50h-246c-55 0 -100 -40 -100 -89v-90h396z" />
    <glyph glyph-name="afii57427" unicode="&#x633;" horiz-adv-x="829" 
d="M704 150v179c0 28 22 50 50 50s50 -22 50 -50v-179c0 -83 -67 -150 -150 -150c-38 0 -73 14 -100 38c-27 -24 -62 -38 -100 -38c-18 0 -35 3 -51 9c-12 -94 -92 -166 -189 -166c-104 0 -189 85 -189 190c0 42 14 83 40 116c17 22 48 26 70 9s26 -49 9 -70
c-13 -16 -19 -35 -19 -55c0 -50 40 -90 89 -90c50 0 90 40 90 90v296c0 28 22 50 50 50s50 -22 50 -50v-179c0 -27 22 -50 50 -50c27 0 50 23 50 50v179c0 28 22 50 50 50s50 -22 50 -50v-179c0 -27 22 -50 50 -50c27 0 50 23 50 50z" />
    <glyph glyph-name="afii57428" unicode="&#x634;" horiz-adv-x="829" 
d="M554 714c31 0 56 -25 56 -56s-25 -56 -56 -56s-57 25 -57 56s26 56 57 56zM487 602c31 0 56 -26 56 -57s-25 -56 -56 -56c-32 0 -57 25 -57 56s25 57 57 57zM621 602c31 0 57 -26 57 -57s-26 -56 -57 -56s-56 25 -56 56s25 57 56 57zM704 150v179c0 28 22 50 50 50
s50 -22 50 -50v-179c0 -83 -67 -150 -150 -150c-38 0 -73 14 -100 38c-27 -24 -62 -38 -100 -38c-18 0 -35 3 -51 9c-12 -94 -92 -166 -189 -166c-104 0 -189 85 -189 190c0 42 14 83 40 116c17 22 48 26 70 9s26 -49 9 -70c-13 -16 -19 -35 -19 -55c0 -50 40 -90 89 -90
c50 0 90 40 90 90v296c0 28 22 50 50 50s50 -22 50 -50v-179c0 -27 22 -50 50 -50c27 0 50 23 50 50v179c0 28 22 50 50 50s50 -22 50 -50v-179c0 -27 22 -50 50 -50c27 0 50 23 50 50z" />
    <glyph glyph-name="afii57431" unicode="&#x637;" horiz-adv-x="671" 
d="M50 0v602c0 28 22 50 50 50s50 -22 50 -50v-248c30 16 64 25 100 25h246c83 0 150 -67 150 -150v-229h-596zM546 100v129c0 28 -22 50 -50 50h-246c-55 0 -100 -40 -100 -89v-90h396z" />
    <glyph glyph-name="afii57440" unicode="&#x640;" horiz-adv-x="369" 
d="M-1 100h371v-100h-371v100z" />
    <glyph glyph-name="afii57507" unicode="&#x686;" horiz-adv-x="634" 
d="M225 379h167c58 0 112 -22 153 -62c41 -41 64 -94 64 -152v-165h-292c-106 0 -192 -85 -192 -190c0 -28 -22 -50 -50 -50c-27 0 -50 22 -50 50c0 77 31 150 86 205s128 85 206 85h192v65c0 63 -53 114 -117 114h-167c-55 0 -100 -40 -100 -89c0 -28 -22 -50 -50 -50
c-27 0 -50 22 -50 50c0 51 22 99 60 135c38 35 88 54 140 54zM343 -52c32 0 57 -26 57 -57s-25 -56 -57 -56c-31 0 -56 25 -56 56s25 57 56 57zM478 -52c31 0 56 -26 56 -57s-25 -56 -56 -56s-56 25 -56 56s25 57 56 57zM411 -165c31 0 56 -25 56 -56s-25 -56 -56 -56
s-57 25 -57 56s26 56 57 56z" />
    <glyph glyph-name="afii57418" unicode="&#x62a;" horiz-adv-x="617" 
d="M241 603c31 0 56 -26 56 -57s-25 -56 -56 -56s-57 25 -57 56s26 57 57 57zM375 603c32 0 57 -26 57 -57s-25 -56 -57 -56c-31 0 -56 25 -56 56s25 57 56 57zM492 150v179c0 28 22 50 50 50c27 0 50 -22 50 -50v-179c0 -82 -68 -150 -150 -150h-267
c-83 0 -150 68 -150 150v179c0 28 22 50 50 50c27 0 50 -22 50 -50v-179c0 -27 22 -50 50 -50h267c27 0 50 23 50 50z" />
    <glyph glyph-name="afii57417" unicode="&#x629;" 
d="M147 602c31 0 57 -25 57 -56c0 -32 -26 -57 -57 -57s-56 25 -56 57c0 31 25 56 56 56zM282 602c31 0 56 -25 56 -56c0 -32 -25 -57 -56 -57s-57 25 -57 57c0 31 26 56 57 56zM214 379c105 0 190 -85 190 -190c0 -104 -85 -189 -190 -189c-104 0 -189 85 -189 189
c0 105 85 190 189 190zM214 279c-49 0 -89 -40 -89 -90c0 -49 40 -89 89 -89c50 0 90 40 90 89c0 50 -40 90 -90 90z" />
    <glyph glyph-name="uni06C3" unicode="&#x6c3;" horiz-adv-x="495" 
d="M147 602c31 0 57 -25 57 -56s-26 -57 -57 -57s-56 26 -56 57s25 56 56 56zM282 602c31 0 56 -25 56 -56s-25 -57 -56 -57s-57 26 -57 57s26 56 57 56zM305 150v40c0 49 -41 89 -90 89s-90 -40 -90 -89c0 -50 41 -90 90 -90c28 0 50 -22 50 -50c0 -27 -22 -50 -50 -50
c-105 0 -190 85 -190 190c0 104 85 189 190 189c104 0 190 -85 190 -189v-40c0 -27 22 -50 50 -50h41v-100h-41c-83 0 -150 67 -150 150z" />
    <glyph glyph-name="afii57424" unicode="&#x630;" horiz-adv-x="444" 
d="M230 602c31 0 56 -25 56 -56s-25 -57 -56 -57c-32 0 -57 26 -57 57s25 56 57 56zM190 379h79c83 0 150 -67 150 -150v-229h-329c-28 0 -50 22 -50 50s22 50 50 50h229v129c0 28 -22 50 -50 50h-79c-27 0 -50 -22 -50 -50s-22 -50 -50 -50c-27 0 -50 22 -50 50
c0 83 67 150 150 150z" />
    <glyph glyph-name="afii57419" unicode="&#x62b;" horiz-adv-x="617" 
d="M308 716c31 0 57 -25 57 -56s-26 -57 -57 -57s-56 26 -56 57s25 56 56 56zM241 603c31 0 56 -26 56 -57s-25 -56 -56 -56s-57 25 -57 56s26 57 57 57zM375 603c32 0 57 -26 57 -57s-25 -56 -57 -56c-31 0 -56 25 -56 56s25 57 56 57zM492 150v179c0 28 22 50 50 50
c27 0 50 -22 50 -50v-179c0 -82 -68 -150 -150 -150h-267c-83 0 -150 68 -150 150v179c0 28 22 50 50 50c27 0 50 -22 50 -50v-179c0 -27 22 -50 50 -50h267c27 0 50 23 50 50z" />
    <glyph glyph-name="afii57511" unicode="&#x679;" horiz-adv-x="617" 
d="M218 356v210c0 10 8 17 18 17c9 0 17 -7 17 -17v-87c10 6 22 9 35 9h61c29 0 53 -23 53 -52v-80h-184zM367 391v45c0 10 -8 17 -18 17h-61c-19 0 -35 -14 -35 -31v-31h114zM492 150v179c0 28 22 50 50 50c27 0 50 -22 50 -50v-179c0 -82 -68 -150 -150 -150h-267
c-83 0 -150 68 -150 150v179c0 28 22 50 50 50c27 0 50 -22 50 -50v-179c0 -27 22 -50 50 -50h267c27 0 50 23 50 50z" />
    <glyph glyph-name="afii57505" unicode="&#x6a4;" horiz-adv-x="617" 
d="M418 712c32 0 57 -26 57 -57s-25 -56 -57 -56c-31 0 -56 25 -56 56s25 57 56 57zM351 602c31 0 57 -25 57 -56s-26 -56 -57 -56s-56 25 -56 56s25 56 56 56zM486 602c31 0 56 -25 56 -56s-25 -56 -56 -56s-57 25 -57 56s26 56 57 56zM175 100h61c-15 27 -23 57 -23 90
c0 104 85 189 190 189c104 0 189 -85 189 -189v-190h-417c-83 0 -150 67 -150 150v179c0 28 22 50 50 50s50 -22 50 -50v-179c0 -28 22 -50 50 -50zM492 100v90c0 49 -40 89 -89 89c-50 0 -90 -40 -90 -89c0 -50 40 -90 90 -90h89z" />
    <glyph glyph-name="afii57448" unicode="&#x648;" 
d="M404 190v-153c0 -29 -7 -57 -22 -83c-13 -24 -32 -46 -56 -64c-47 -35 -108 -55 -172 -55c-28 0 -50 23 -50 50c0 28 22 50 50 50c73 0 137 38 148 87c-26 -14 -56 -22 -87 -22c-105 0 -190 85 -190 190c0 104 85 189 190 189c104 0 189 -85 189 -189zM215 279
c-50 0 -90 -40 -90 -89c0 -50 40 -90 90 -90c49 0 89 40 89 90c0 49 -40 89 -89 89z" />
    <glyph glyph-name="afii57412" unicode="&#x624;" 
d="M174 595l121 43v-110c0 -14 -11 -25 -25 -25s-25 11 -25 25v39l-52 -19c-5 -2 -8 -5 -9 -9s1 -9 4 -14l35 -47c29 -2 56 -11 80 -27c12 -8 15 -23 7 -35c-5 -7 -13 -11 -21 -11c-5 0 -10 2 -14 5c-19 13 -40 19 -62 18h-3c-20 0 -39 -7 -56 -18c-11 -8 -27 -5 -35 6
c-8 12 -5 27 7 35c12 9 26 15 40 20l-18 24c-13 17 -17 37 -12 56c4 19 18 34 37 43zM404 190v-153c0 -29 -7 -57 -22 -83c-13 -24 -32 -46 -56 -64c-47 -35 -108 -55 -172 -55c-28 0 -50 23 -50 50c0 28 22 50 50 50c73 0 137 38 148 87c-26 -14 -56 -22 -87 -22
c-105 0 -190 85 -190 190c0 104 85 189 190 189c104 0 189 -85 189 -189zM215 279c-50 0 -90 -40 -90 -89c0 -50 40 -90 90 -90c49 0 89 40 89 90c0 49 -40 89 -89 89z" />
    <glyph glyph-name="afii57450" unicode="&#x64a;" horiz-adv-x="617" 
d="M358 379h184c28 0 50 -22 50 -50s-22 -50 -50 -50h-184v-39h234v-90c0 -83 -67 -150 -150 -150h-267c-83 0 -150 67 -150 150v179c0 28 22 50 50 50c27 0 50 -22 50 -50v-179c0 -28 22 -50 50 -50h267c24 0 44 17 49 40h-133c-55 0 -100 45 -100 100v39
c0 55 45 100 100 100zM241 -38c31 0 56 -25 56 -56s-25 -57 -56 -57s-56 26 -56 57s25 56 56 56zM376 -38c31 0 56 -25 56 -56s-25 -57 -56 -57c-32 0 -57 26 -57 57s25 56 57 56z" />
    <glyph glyph-name="uni06CC" unicode="&#x6cc;" horiz-adv-x="617" 
d="M358 379h184c28 0 50 -22 50 -50s-22 -50 -50 -50h-184v-39h234v-90c0 -83 -67 -150 -150 -150h-267c-83 0 -150 67 -150 150v179c0 28 22 50 50 50c27 0 50 -22 50 -50v-179c0 -28 22 -50 50 -50h267c24 0 44 17 49 40h-133c-55 0 -100 45 -100 100v39
c0 55 45 100 100 100z" />
    <glyph glyph-name="afii57414" unicode="&#x626;" horiz-adv-x="666" 
d="M84 594l121 44v-110c0 -14 -11 -25 -25 -25c-13 0 -25 11 -25 25v39l-52 -19c-5 -2 -8 -6 -9 -10s1 -8 4 -13l35 -47c28 -2 56 -12 80 -27c12 -8 15 -24 7 -35c-5 -7 -13 -11 -21 -11c-5 0 -9 1 -14 4c-37 25 -84 25 -121 0c-11 -8 -27 -5 -35 7c-7 11 -4 27 7 35
c12 8 26 15 40 19l-18 25c-12 17 -17 37 -12 56c5 18 18 34 37 43h1zM408 379h184c28 0 50 -22 50 -50s-22 -50 -50 -50h-184v-39h234v-90c0 -83 -67 -150 -150 -150h-267c-83 0 -150 67 -150 150v179c0 28 22 50 50 50c27 0 50 -22 50 -50v-179c0 -28 22 -50 50 -50h267
c24 0 44 17 49 40h-133c-55 0 -100 45 -100 100v39c0 55 45 100 100 100z" />
    <glyph glyph-name="afii57519" unicode="&#x6d2;" horiz-adv-x="742" 
d="M242 240h166c53 0 103 -20 141 -55c25 -24 43 -53 52 -85h142v-100h-235v50c0 49 -44 90 -100 90h-166c-64 0 -117 -51 -117 -114v-94h434c27 0 50 -22 50 -50c0 -27 -23 -50 -50 -50h-534v194c0 57 23 111 64 151s95 63 153 63z" />
    <glyph glyph-name="afii57432" unicode="&#x638;" horiz-adv-x="671" 
d="M50 0v602c0 28 22 50 50 50s50 -22 50 -50v-248c30 16 64 25 100 25h246c83 0 150 -67 150 -150v-229h-596zM257 602c31 0 56 -25 56 -56s-25 -57 -56 -57s-57 26 -57 57s26 56 57 56zM546 100v129c0 28 -22 50 -50 50h-246c-55 0 -100 -40 -100 -89v-90h396z" />
    <glyph glyph-name="afii57426" unicode="&#x632;" horiz-adv-x="347" 
d="M199 602c31 0 56 -26 56 -57s-25 -56 -56 -56s-57 25 -57 56s26 57 57 57zM202 36v204c0 22 -19 39 -41 39c-27 0 -50 23 -50 50c0 28 23 50 50 50c78 0 141 -62 141 -139v-204c0 -63 -24 -123 -66 -168c-43 -46 -100 -71 -161 -71c-28 0 -50 22 -50 50s22 50 50 50
c70 0 127 62 127 139z" />
    <glyph glyph-name="zero" unicode="0" horiz-adv-x="539" 
d="M269 489c65 0 127 -26 173 -72s72 -108 72 -173s-26 -127 -72 -173s-108 -71 -173 -71s-127 25 -173 71s-71 108 -71 173s25 127 71 173s108 72 173 72zM269 389c-80 0 -144 -65 -144 -145c0 -79 64 -144 144 -144s145 65 145 144c0 80 -65 145 -145 145z" />
    <glyph glyph-name="one" unicode="1" horiz-adv-x="292" 
d="M175 489h92v-439c0 -28 -23 -50 -50 -50c-28 0 -50 22 -50 50v339c-24 -4 -42 -25 -42 -50v-9c0 -28 -22 -50 -50 -50s-50 22 -50 50v9c0 83 67 150 150 150z" />
    <glyph glyph-name="two" unicode="2" 
d="M354 0h-279c-25 0 -46 18 -49 43c-4 24 11 48 34 55c1 0 67 20 130 59c52 31 114 82 114 144c0 49 -40 89 -89 89c-50 0 -90 -40 -90 -89c0 -28 -22 -50 -50 -50s-50 22 -50 50c0 104 85 189 190 189c104 0 189 -85 189 -189c0 -50 -19 -97 -55 -141
c-18 -21 -39 -41 -64 -60h69c28 0 50 -22 50 -50s-22 -50 -50 -50z" />
    <glyph glyph-name="three" unicode="3" horiz-adv-x="472" 
d="M111 488h338l-152 -230c65 -30 109 -96 109 -171c0 -105 -85 -190 -189 -190c-105 0 -190 85 -190 190c0 27 22 50 50 50s50 -23 50 -50c0 -50 40 -90 90 -90c49 0 89 40 89 90c0 49 -40 89 -89 89h-93l139 212h-152c-28 0 -50 23 -50 50c0 28 22 50 50 50z" />
    <glyph glyph-name="four" unicode="4" horiz-adv-x="499" 
d="M33 78l260 391c12 18 35 26 56 20s35 -26 35 -48v-341h40c27 0 50 -22 50 -50s-23 -50 -50 -50h-40v-50c0 -28 -22 -50 -50 -50c-27 0 -50 22 -50 50v50h-209c-18 0 -35 10 -44 26s-8 36 2 52zM284 100v175l-116 -175h116z" />
    <glyph glyph-name="five" unicode="5" horiz-adv-x="442" 
d="M220 489h147c28 0 50 -22 50 -50c0 -27 -22 -50 -50 -50h-91l-67 -112h8c50 -1 97 -21 132 -56c36 -36 55 -83 55 -133c0 -105 -85 -190 -189 -190c-105 0 -190 85 -190 190c0 27 22 50 50 50s50 -23 50 -50c0 -50 40 -90 90 -90c49 0 89 40 89 90c0 48 -40 88 -88 89
h-94h-90z" />
    <glyph glyph-name="six" unicode="6" 
d="M315 573c25 12 55 2 67 -23s1 -55 -24 -67c-53 -26 -99 -61 -137 -104c29 -1 58 -9 84 -23c92 -50 126 -165 76 -257c-33 -61 -97 -99 -167 -99c-31 0 -62 8 -90 23c-88 48 -123 157 -81 247c24 67 60 128 108 180c46 52 101 93 164 123zM215 279c-33 0 -63 -18 -79 -47
c-24 -43 -8 -97 36 -121c13 -7 27 -11 42 -11c33 0 63 18 79 47c24 43 8 98 -36 121c-13 7 -27 11 -42 11z" />
    <glyph glyph-name="seven" unicode="7" horiz-adv-x="476" 
d="M75 489h376l-56 -79c-2 -2 -195 -278 -195 -462c0 -28 -22 -50 -50 -50c-27 0 -50 22 -50 50c0 92 37 208 108 345c19 36 38 69 54 96h-187c-28 0 -50 23 -50 50c0 28 22 50 50 50z" />
    <glyph glyph-name="eight" unicode="8" 
d="M215 622c28 0 56 -8 81 -21c83 -45 114 -149 69 -232c-7 -13 -16 -25 -26 -36c65 -57 85 -154 42 -234c-33 -61 -97 -99 -167 -99c-31 0 -62 8 -90 24c-92 50 -126 165 -76 257c11 20 25 37 42 52c-49 52 -62 133 -26 199c30 55 88 90 151 90zM215 522
c-27 0 -50 -15 -63 -37c-19 -35 -6 -78 29 -97c10 -6 21 -8 33 -8c26 0 50 14 63 37c19 34 6 77 -29 96c-10 6 -22 9 -33 9zM215 280c-33 0 -63 -18 -79 -47c-24 -44 -8 -98 36 -122c13 -7 27 -11 42 -11c33 0 63 18 79 47c24 44 8 98 -36 122c-13 7 -27 11 -42 11z" />
    <glyph glyph-name="nine" unicode="9" 
d="M215 489c31 0 62 -8 90 -23c88 -48 123 -157 81 -247c-24 -67 -60 -128 -108 -181c-46 -51 -102 -92 -164 -122c-7 -3 -14 -5 -22 -5c-18 0 -36 10 -45 28c-12 25 -1 55 24 67c53 26 99 61 137 104c-29 1 -58 9 -84 23c-92 50 -126 165 -76 257c33 61 97 99 167 99z
M215 389c-33 0 -63 -18 -79 -47c-24 -43 -8 -98 36 -121c13 -7 27 -11 42 -11c33 0 63 18 79 47c24 43 8 97 -36 121c-13 7 -27 11 -42 11z" />
    <glyph glyph-name="afii57392" unicode="&#x660;" horiz-adv-x="539" 
d="M269 489c65 0 127 -26 173 -72s72 -108 72 -173s-26 -127 -72 -173s-108 -71 -173 -71s-127 25 -173 71s-71 108 -71 173s25 127 71 173s108 72 173 72zM269 389c-80 0 -144 -65 -144 -145c0 -79 64 -144 144 -144s145 65 145 144c0 80 -65 145 -145 145z" />
    <glyph glyph-name="afii57393" unicode="&#x661;" horiz-adv-x="292" 
d="M175 489h92v-439c0 -28 -23 -50 -50 -50c-28 0 -50 22 -50 50v339c-24 -4 -42 -25 -42 -50v-9c0 -28 -22 -50 -50 -50s-50 22 -50 50v9c0 83 67 150 150 150z" />
    <glyph glyph-name="afii57394" unicode="&#x662;" 
d="M354 0h-279c-25 0 -46 18 -49 43c-4 24 11 48 34 55c1 0 67 20 130 59c52 31 114 82 114 144c0 49 -40 89 -89 89c-50 0 -90 -40 -90 -89c0 -28 -22 -50 -50 -50s-50 22 -50 50c0 104 85 189 190 189c104 0 189 -85 189 -189c0 -50 -19 -97 -55 -141
c-18 -21 -39 -41 -64 -60h69c28 0 50 -22 50 -50s-22 -50 -50 -50z" />
    <glyph glyph-name="afii57395" unicode="&#x663;" horiz-adv-x="472" 
d="M109 488h338l-152 -230c65 -30 109 -96 109 -171c0 -105 -85 -190 -189 -190c-105 0 -190 85 -190 190c0 27 22 50 50 50s50 -23 50 -50c0 -50 40 -90 90 -90c49 0 89 40 89 90c0 49 -40 89 -89 89h-93l139 212h-152c-28 0 -50 23 -50 50c0 28 22 50 50 50z" />
    <glyph glyph-name="afii57396" unicode="&#x664;" horiz-adv-x="499" 
d="M33 78l260 391c12 18 35 26 56 20s35 -26 35 -48v-341h40c27 0 50 -22 50 -50s-23 -50 -50 -50h-40v-50c0 -28 -22 -50 -50 -50c-27 0 -50 22 -50 50v50h-209c-18 0 -35 10 -44 26s-8 36 2 52zM284 100v175l-116 -175h116z" />
    <glyph glyph-name="afii57397" unicode="&#x665;" horiz-adv-x="442" 
d="M220 489h147c28 0 50 -22 50 -50c0 -27 -22 -50 -50 -50h-91l-67 -112h8c50 -1 97 -21 132 -56c36 -36 55 -83 55 -133c0 -105 -85 -190 -189 -190c-105 0 -190 85 -190 190c0 27 22 50 50 50s50 -23 50 -50c0 -50 40 -90 90 -90c49 0 89 40 89 90c0 48 -40 88 -88 89
h-94h-90z" />
    <glyph glyph-name="afii57398" unicode="&#x666;" 
d="M315 573c25 12 55 2 67 -23s1 -55 -24 -67c-53 -26 -99 -61 -137 -104c29 -1 58 -9 84 -23c92 -50 126 -165 76 -257c-33 -61 -97 -99 -167 -99c-31 0 -62 8 -90 23c-88 48 -123 157 -81 247c24 67 60 128 108 180c46 52 101 93 164 123zM215 279c-33 0 -63 -18 -79 -47
c-24 -43 -8 -97 36 -121c13 -7 27 -11 42 -11c33 0 63 18 79 47c24 43 8 98 -36 121c-13 7 -27 11 -42 11z" />
    <glyph glyph-name="afii57399" unicode="&#x667;" horiz-adv-x="476" 
d="M75 489h376l-56 -79c-2 -2 -195 -278 -195 -462c0 -28 -22 -50 -50 -50c-27 0 -50 22 -50 50c0 92 37 208 108 345c19 36 38 69 54 96h-187c-28 0 -50 23 -50 50c0 28 22 50 50 50z" />
    <glyph glyph-name="afii57400" unicode="&#x668;" 
d="M215 622c28 0 56 -8 81 -21c83 -45 114 -149 69 -232c-7 -13 -16 -25 -26 -36c65 -57 85 -154 42 -234c-33 -61 -97 -99 -167 -99c-31 0 -62 8 -90 24c-92 50 -126 165 -76 257c11 20 25 37 42 52c-49 52 -62 133 -26 199c30 55 88 90 151 90zM215 522
c-27 0 -50 -15 -63 -37c-19 -35 -6 -78 29 -97c10 -6 21 -8 33 -8c26 0 50 14 63 37c19 34 6 77 -29 96c-10 6 -22 9 -33 9zM215 280c-33 0 -63 -18 -79 -47c-24 -44 -8 -98 36 -122c13 -7 27 -11 42 -11c33 0 63 18 79 47c24 44 8 98 -36 122c-13 7 -27 11 -42 11z" />
    <glyph glyph-name="afii57401" unicode="&#x669;" 
d="M215 489c31 0 62 -8 90 -23c88 -48 123 -157 81 -247c-24 -67 -60 -128 -108 -181c-46 -51 -102 -92 -164 -122c-7 -3 -14 -5 -22 -5c-18 0 -36 10 -45 28c-12 25 -1 55 24 67c53 26 99 61 137 104c-29 1 -58 9 -84 23c-92 50 -126 165 -76 257c33 61 97 99 167 99z
M215 389c-33 0 -63 -18 -79 -47c-24 -43 -8 -98 36 -121c13 -7 27 -11 42 -11c33 0 63 18 79 47c24 43 8 97 -36 121c-13 7 -27 11 -42 11z" />
    <glyph glyph-name="zeropersian" unicode="&#x6f0;" horiz-adv-x="539" 
d="M269 489c65 0 127 -26 173 -72s72 -108 72 -173s-26 -127 -72 -173s-108 -71 -173 -71s-127 25 -173 71s-71 108 -71 173s25 127 71 173s108 72 173 72zM269 389c-80 0 -144 -65 -144 -145c0 -79 64 -144 144 -144s145 65 145 144c0 80 -65 145 -145 145z" />
    <glyph glyph-name="onepersian" unicode="&#x6f1;" horiz-adv-x="292" 
d="M175 489h92v-439c0 -28 -23 -50 -50 -50c-28 0 -50 22 -50 50v339c-24 -4 -42 -25 -42 -50v-9c0 -28 -22 -50 -50 -50s-50 22 -50 50v9c0 83 67 150 150 150z" />
    <glyph glyph-name="twopersian" unicode="&#x6f2;" 
d="M354 0h-279c-25 0 -46 18 -49 43c-4 24 11 48 34 55c1 0 67 20 130 59c52 31 114 82 114 144c0 49 -40 89 -89 89c-50 0 -90 -40 -90 -89c0 -28 -22 -50 -50 -50s-50 22 -50 50c0 104 85 189 190 189c104 0 189 -85 189 -189c0 -50 -19 -97 -55 -141
c-18 -21 -39 -41 -64 -60h69c28 0 50 -22 50 -50s-22 -50 -50 -50z" />
    <glyph glyph-name="threepersian" unicode="&#x6f3;" horiz-adv-x="472" 
d="M109 488h338l-152 -230c65 -30 109 -96 109 -171c0 -105 -85 -190 -189 -190c-105 0 -190 85 -190 190c0 27 22 50 50 50s50 -23 50 -50c0 -50 40 -90 90 -90c49 0 89 40 89 90c0 49 -40 89 -89 89h-93l139 212h-152c-28 0 -50 23 -50 50c0 28 22 50 50 50z" />
    <glyph glyph-name="fourpersian" unicode="&#x6f4;" horiz-adv-x="499" 
d="M33 78l260 391c12 18 35 26 56 20s35 -26 35 -48v-341h40c27 0 50 -22 50 -50s-23 -50 -50 -50h-40v-50c0 -28 -22 -50 -50 -50c-27 0 -50 22 -50 50v50h-209c-18 0 -35 10 -44 26s-8 36 2 52zM284 100v175l-116 -175h116z" />
    <glyph glyph-name="fivepersian" unicode="&#x6f5;" horiz-adv-x="442" 
d="M220 489h147c28 0 50 -22 50 -50c0 -27 -22 -50 -50 -50h-91l-67 -112h8c50 -1 97 -21 132 -56c36 -36 55 -83 55 -133c0 -105 -85 -190 -189 -190c-105 0 -190 85 -190 190c0 27 22 50 50 50s50 -23 50 -50c0 -50 40 -90 90 -90c49 0 89 40 89 90c0 48 -40 88 -88 89
h-94h-90z" />
    <glyph glyph-name="sixpersian" unicode="&#x6f6;" 
d="M315 573c25 12 55 2 67 -23s1 -55 -24 -67c-53 -26 -99 -61 -137 -104c29 -1 58 -9 84 -23c92 -50 126 -165 76 -257c-33 -61 -97 -99 -167 -99c-31 0 -62 8 -90 23c-88 48 -123 157 -81 247c24 67 60 128 108 180c46 52 101 93 164 123zM215 279c-33 0 -63 -18 -79 -47
c-24 -43 -8 -97 36 -121c13 -7 27 -11 42 -11c33 0 63 18 79 47c24 43 8 98 -36 121c-13 7 -27 11 -42 11z" />
    <glyph glyph-name="sevenpersian" unicode="&#x6f7;" horiz-adv-x="476" 
d="M75 489h376l-56 -79c-2 -2 -195 -278 -195 -462c0 -28 -22 -50 -50 -50c-27 0 -50 22 -50 50c0 92 37 208 108 345c19 36 38 69 54 96h-187c-28 0 -50 23 -50 50c0 28 22 50 50 50z" />
    <glyph glyph-name="eightpersian" unicode="&#x6f8;" 
d="M215 622c28 0 56 -8 81 -21c83 -45 114 -149 69 -232c-7 -13 -16 -25 -26 -36c65 -57 85 -154 42 -234c-33 -61 -97 -99 -167 -99c-31 0 -62 8 -90 24c-92 50 -126 165 -76 257c11 20 25 37 42 52c-49 52 -62 133 -26 199c30 55 88 90 151 90zM215 522
c-27 0 -50 -15 -63 -37c-19 -35 -6 -78 29 -97c10 -6 21 -8 33 -8c26 0 50 14 63 37c19 34 6 77 -29 96c-10 6 -22 9 -33 9zM215 280c-33 0 -63 -18 -79 -47c-24 -44 -8 -98 36 -122c13 -7 27 -11 42 -11c33 0 63 18 79 47c24 44 8 98 -36 122c-13 7 -27 11 -42 11z" />
    <glyph glyph-name="ninepersian" unicode="&#x6f9;" 
d="M215 489c31 0 62 -8 90 -23c88 -48 123 -157 81 -247c-24 -67 -60 -128 -108 -181c-46 -51 -102 -92 -164 -122c-7 -3 -14 -5 -22 -5c-18 0 -36 10 -45 28c-12 25 -1 55 24 67c53 26 99 61 137 104c-29 1 -58 9 -84 23c-92 50 -126 165 -76 257c33 61 97 99 167 99z
M215 389c-33 0 -63 -18 -79 -47c-24 -43 -8 -98 36 -121c13 -7 27 -11 42 -11c33 0 63 18 79 47c24 43 8 97 -36 121c-13 7 -27 11 -42 11z" />
    <glyph glyph-name="asterisk" unicode="*" horiz-adv-x="452" 
d="M174 609v35c0 46 18 70 52 70c33 0 51 -25 51 -70v-35l30 18c40 23 70 19 87 -10c16 -29 9 -54 -20 -71l-45 -27l30 -17c39 -23 51 -51 35 -80c-17 -29 -47 -33 -87 -10l-30 18v-34c0 -45 -18 -70 -51 -70c-34 0 -52 25 -52 70v34l-29 -17c-40 -23 -70 -20 -87 9
s-5 57 35 80l29 17l-30 18c-39 23 -51 51 -34 80s47 32 87 9z" />
    <glyph glyph-name="backslash" unicode="\" horiz-adv-x="447" 
d="M302 28l-247 501c-12 25 -2 55 23 67s55 2 67 -23l246 -501c13 -25 2 -55 -22 -67c-7 -3 -15 -5 -22 -5c-19 0 -37 10 -45 28z" />
    <glyph glyph-name="bullet" unicode="&#x2022;" horiz-adv-x="376" 
d="M188 494c79 0 138 -62 138 -137c0 -79 -59 -139 -138 -139c-75 0 -138 60 -138 139c0 75 63 137 138 137z" />
    <glyph glyph-name="colon" unicode=":" horiz-adv-x="219" 
d="M110 439c34 0 59 -26 59 -61c0 -32 -25 -59 -59 -59c-33 0 -60 27 -60 59c0 35 27 61 60 61zM110 220c34 0 59 -26 59 -61c0 -32 -25 -59 -59 -59c-33 0 -60 27 -60 59c0 35 27 61 60 61z" />
    <glyph glyph-name="comma" unicode="," horiz-adv-x="233" 
d="M179 67c23 -75 -52 -163 -129 -112l12 23c25 -7 41 7 46 22c-17 5 -32 19 -38 37c-9 30 7 64 37 71c53 13 71 -39 72 -41z" />
    <glyph glyph-name="ellipsis" unicode="&#x2026;" horiz-adv-x="621" 
d="M50 100h108v-100h-108v100zM260 100h108v-100h-108v100zM463 100h108v-100h-108v100z" />
    <glyph glyph-name="exclam" unicode="!" horiz-adv-x="212" 
d="M56 50v501c0 28 22 50 50 50s50 -22 50 -50v-501c0 -28 -22 -50 -50 -50s-50 22 -50 50zM106 -51c31 0 56 -26 56 -57s-25 -56 -56 -56s-56 25 -56 56s25 57 56 57z" />
    <glyph glyph-name="exclamdown" unicode="&#xa1;" horiz-adv-x="212" 
d="M106 602c31 0 56 -25 56 -56s-25 -57 -56 -57s-56 26 -56 57s25 56 56 56zM56 -113v501c0 28 22 50 50 50s50 -22 50 -50v-501c0 -28 -22 -50 -50 -50s-50 22 -50 50z" />
    <glyph glyph-name="numbersign" unicode="#" horiz-adv-x="671" 
d="M421 422l38 142c7 27 34 43 61 36c27 -8 43 -35 35 -62l-31 -116h72c14 0 25 -11 25 -25c0 -13 -11 -25 -25 -25h-85l-39 -143h72c14 0 25 -11 25 -25s-11 -25 -25 -25h-85l-38 -142c-6 -22 -26 -37 -48 -37c-4 0 -9 1 -13 2c-27 7 -43 34 -35 61l31 116h-106l-38 -142
c-6 -22 -26 -37 -48 -37c-4 0 -9 1 -13 2c-27 7 -43 34 -35 61l31 116h-72c-14 0 -25 11 -25 25s11 25 25 25h85l39 143h-72c-14 0 -25 12 -25 25c0 14 11 25 25 25h85l38 142c7 27 34 43 61 36c27 -8 43 -35 35 -62l-31 -116h106zM369 229l39 143h-106l-39 -143h106z" />
    <glyph glyph-name="period" unicode="." horiz-adv-x="219" 
d="M110 120c34 0 59 -26 59 -61c0 -32 -25 -59 -59 -59c-33 0 -60 27 -60 59c0 35 27 61 60 61z" />
    <glyph glyph-name="periodcentered" unicode="&#xb7;" horiz-adv-x="208" 
d="M50 318h108v-100h-108v100z" />
    <glyph glyph-name="question" unicode="?" horiz-adv-x="444" 
d="M281 50v175c-17 -4 -36 -5 -54 -4c-50 3 -96 26 -130 64c-69 78 -61 198 17 267c38 34 87 51 138 47c50 -3 96 -26 130 -64c18 -20 16 -52 -5 -70s-52 -16 -70 4c-16 18 -38 29 -62 31c-24 1 -47 -7 -65 -23c-37 -32 -40 -89 -8 -126c16 -18 38 -29 61 -30
c24 -2 46 7 65 22l83 63v-356c0 -28 -22 -50 -50 -50s-50 22 -50 50zM332 -51c31 0 57 -26 57 -57s-26 -56 -57 -56s-56 25 -56 56s25 57 56 57z" />
    <glyph glyph-name="questiondown" unicode="&#xbf;" horiz-adv-x="444" 
d="M332 600c31 0 57 -25 57 -56s-26 -57 -57 -57s-56 26 -56 57s25 56 56 56zM281 211v175c0 28 22 50 50 50s50 -22 50 -50v-356l-83 63c-19 15 -41 24 -65 22c-23 -1 -45 -12 -61 -30c-32 -37 -29 -94 8 -126c18 -16 41 -24 65 -23c24 2 46 13 62 31c18 20 49 22 70 4
s23 -50 5 -70c-34 -38 -80 -61 -130 -64c-51 -4 -100 13 -138 47c-78 69 -86 189 -17 267c34 38 80 61 130 64c18 1 37 0 54 -4z" />
    <glyph glyph-name="quotedbl" unicode="&#x22;" horiz-adv-x="372" 
d="M69 713h88c13 0 20 -8 19 -21l-18 -149c-3 -25 -17 -38 -42 -38h-6c-25 0 -39 13 -42 38l-18 149c-1 13 6 21 19 21zM215 713h88c13 0 20 -8 19 -21l-18 -149c-3 -25 -17 -38 -42 -38h-6c-25 0 -39 13 -42 38l-18 149c-1 13 6 21 19 21z" />
    <glyph glyph-name="quotesingle" unicode="'" horiz-adv-x="226" 
d="M69 713h88c13 0 20 -8 19 -21l-18 -149c-3 -25 -17 -38 -42 -38h-6c-25 0 -39 13 -42 38l-18 149c-1 13 6 21 19 21z" />
    <glyph glyph-name="semicolon" unicode=";" horiz-adv-x="236" 
d="M57 361c-23 75 52 163 129 112l-12 -23c-25 7 -41 -7 -46 -22c17 -5 32 -19 38 -37c9 -30 -7 -64 -37 -71c-53 -13 -71 39 -72 41zM110 220c34 0 59 -26 59 -61c0 -32 -25 -59 -59 -59c-33 0 -60 27 -60 59c0 35 27 61 60 61z" />
    <glyph glyph-name="slash" unicode="/" horiz-adv-x="447" 
d="M56 72l246 501c12 25 42 35 67 23s35 -42 23 -67l-247 -501c-8 -18 -26 -28 -45 -28c-7 0 -15 2 -22 5c-24 12 -35 42 -22 67z" />
    <glyph glyph-name="underscore" unicode="_" horiz-adv-x="632" 
d="M100 -20h432c29 0 50 -22 50 -50s-22 -50 -50 -50h-432c-28 0 -50 22 -50 50s22 50 50 50z" />
    <glyph glyph-name="exclam.287" horiz-adv-x="212" 
d="M56 50v501c0 28 22 50 50 50s50 -22 50 -50v-501c0 -28 -22 -50 -50 -50s-50 22 -50 50zM106 -51c31 0 56 -26 56 -57s-25 -56 -56 -56s-56 25 -56 56s25 57 56 57z" />
    <glyph glyph-name="colon.290" horiz-adv-x="219" 
d="M110 439c34 0 59 -26 59 -61c0 -32 -25 -59 -59 -59c-33 0 -60 27 -60 59c0 35 27 61 60 61zM110 220c34 0 59 -26 59 -61c0 -32 -25 -59 -59 -59c-33 0 -60 27 -60 59c0 35 27 61 60 61z" />
    <glyph glyph-name="backslash.314" horiz-adv-x="447" 
d="M302 28l-247 501c-12 25 -2 55 23 67s55 2 67 -23l246 -501c13 -25 2 -55 -22 -67c-7 -3 -15 -5 -22 -5c-19 0 -37 10 -45 28z" />
    <glyph glyph-name="slash.315" horiz-adv-x="447" 
d="M56 72l246 501c12 25 42 35 67 23s35 -42 23 -67l-247 -501c-8 -18 -26 -28 -45 -28c-7 0 -15 2 -22 5c-24 12 -35 42 -22 67z" />
    <glyph glyph-name="braceleft" unicode="{" horiz-adv-x="363" 
d="M192 662h96c22 0 40 -18 40 -35c0 -15 -18 -35 -40 -35h-96c-17 0 -14 0 -16 -4c-1 -2 -2 -9 0 -24c3 -21 10 -45 18 -74c17 -62 38 -135 38 -217s-21 -156 -38 -217c-8 -28 -15 -54 -18 -74c-3 -19 -1 -25 0 -26c3 -3 6 -3 16 -3h96c22 0 40 -18 40 -35s-18 -35 -40 -35
h-96c-36 0 -66 12 -80 31c-20 25 -18 57 -15 77c3 23 11 51 21 84c12 46 28 102 32 163h-75c-20 0 -40 18 -40 35s20 35 40 35h75c-4 60 -20 116 -32 162c-10 34 -18 61 -21 84c-3 20 -5 52 15 78c14 19 45 30 80 30z" />
    <glyph glyph-name="braceright" unicode="}" horiz-adv-x="363" 
d="M75 662h96c35 0 66 -11 80 -30c20 -26 18 -58 15 -77c-3 -24 -11 -51 -21 -85c-12 -46 -28 -102 -32 -162h75c20 0 40 -18 40 -35s-20 -35 -40 -35h-75c4 -61 20 -117 32 -163c10 -33 18 -61 21 -84c3 -20 5 -52 -15 -77c-14 -19 -44 -31 -80 -31h-96
c-22 0 -40 18 -40 35s18 35 40 35h96c10 0 13 0 16 3c1 1 3 7 0 26c-3 20 -10 46 -18 74c-17 61 -38 135 -38 217s21 155 38 217c8 29 15 53 18 74c2 15 1 22 0 24c-2 4 1 4 -16 4h-96c-22 0 -40 20 -40 35c0 17 18 35 40 35z" />
    <glyph glyph-name="bracketleft" unicode="[" horiz-adv-x="286" 
d="M115 -47h96c22 0 40 -18 40 -35s-18 -35 -40 -35h-108c-37 0 -68 31 -68 63v653c0 33 32 63 68 63h108c22 0 40 -18 40 -35c0 -15 -18 -35 -40 -35h-96v-639z" />
    <glyph glyph-name="bracketright" unicode="]" horiz-adv-x="286" 
d="M75 662h108c36 0 68 -30 68 -63v-653c0 -32 -31 -63 -68 -63h-108c-22 0 -40 18 -40 35s18 35 40 35h96v639h-96c-22 0 -40 20 -40 35c0 17 18 35 40 35z" />
    <glyph glyph-name="parenleft" unicode="(" horiz-adv-x="382" 
d="M307 662c22 0 40 -19 40 -35s-18 -35 -40 -35c-47 0 -92 -28 -130 -88c-39 -60 -62 -142 -62 -231c0 -90 23 -172 62 -232c38 -59 83 -88 130 -88c22 0 40 -18 40 -35s-18 -35 -40 -35c-39 0 -79 13 -112 34c-34 22 -62 52 -86 86c-48 74 -74 169 -74 270
c0 100 26 195 75 270c23 34 51 64 85 86c33 22 73 33 112 33z" />
    <glyph glyph-name="parenright" unicode=")" horiz-adv-x="382" 
d="M75 662c39 0 79 -12 112 -33c34 -22 62 -52 86 -87c48 -74 74 -170 74 -269c0 -101 -26 -197 -75 -271c-23 -33 -51 -63 -85 -85c-33 -21 -73 -34 -112 -34c-22 0 -40 18 -40 35s18 35 40 35c47 0 92 29 130 88c39 60 62 143 62 232s-23 172 -62 232
c-38 59 -83 87 -130 87c-22 0 -40 20 -40 35c0 17 18 35 40 35z" />
    <glyph glyph-name="emdash" unicode="&#x2014;" horiz-adv-x="512" 
d="M100 307h312c29 0 50 -22 50 -50s-22 -50 -50 -50h-312c-28 0 -50 22 -50 50s22 50 50 50z" />
    <glyph glyph-name="endash" unicode="&#x2013;" horiz-adv-x="512" 
d="M100 307h312c29 0 50 -22 50 -50s-22 -50 -50 -50h-312c-28 0 -50 22 -50 50s22 50 50 50z" />
    <glyph glyph-name="hyphen" unicode="-" horiz-adv-x="632" 
d="M100 307h432c29 0 50 -22 50 -50s-22 -50 -50 -50h-432c-28 0 -50 22 -50 50s22 50 50 50z" />
    <glyph glyph-name="softhyphen" unicode="&#xad;" horiz-adv-x="632" 
d="M100 307h432c29 0 50 -22 50 -50s-22 -50 -50 -50h-432c-28 0 -50 22 -50 50s22 50 50 50z" />
    <glyph glyph-name="guillemotleft" unicode="&#xab;" horiz-adv-x="523" 
d="M72 278l240 211v-93l-168 -152l168 -152v-92l-240 210c-18 18 -22 22 -22 34c0 14 4 17 22 34zM234 278l239 211v-93l-166 -152l166 -152v-92l-239 210c-19 18 -22 22 -22 34c0 14 3 17 22 34z" />
    <glyph glyph-name="guillemotright" unicode="&#xbb;" horiz-adv-x="523" 
d="M50 396v93l239 -211c19 -17 22 -20 22 -34c0 -12 -3 -16 -22 -34l-239 -210v92l166 152zM211 396v93l240 -211c18 -17 22 -20 22 -34c0 -12 -4 -16 -22 -34l-240 -210v92l168 152z" />
    <glyph glyph-name="guilsinglleft" unicode="&#x2039;" horiz-adv-x="362" 
d="M72 278l240 211v-93l-168 -152l168 -152v-92l-240 210c-18 18 -22 22 -22 34c0 14 4 17 22 34z" />
    <glyph glyph-name="guilsinglright" unicode="&#x203a;" horiz-adv-x="361" 
d="M50 396v93l239 -211c19 -17 22 -20 22 -34c0 -12 -3 -16 -22 -34l-239 -210v92l166 152z" />
    <glyph glyph-name="quotedblbase" unicode="&#x201e;" horiz-adv-x="311" 
d="M132 -62c11 18 21 98 21 110c0 29 -23 52 -52 52c-28 0 -51 -23 -51 -52c0 -12 9 -92 20 -110c16 -25 47 -25 62 0zM241 -62c11 18 20 98 20 110c0 29 -23 52 -51 52c-29 0 -52 -23 -52 -52c0 -12 10 -92 21 -110c16 -25 46 -25 62 0z" />
    <glyph glyph-name="quotedblleft" unicode="&#x201c;" horiz-adv-x="311" 
d="M132 651c-15 25 -46 25 -62 0c-11 -18 -20 -98 -20 -110c0 -29 23 -52 51 -52c29 0 52 23 52 52c0 12 -10 92 -21 110zM241 651c-16 25 -46 25 -62 0c-11 -18 -21 -98 -21 -110c0 -29 23 -52 52 -52c28 0 51 23 51 52c0 12 -9 92 -20 110z" />
    <glyph glyph-name="quotedblright" unicode="&#x201d;" horiz-adv-x="311" 
d="M132 508c11 18 21 98 21 110c0 29 -23 52 -52 52c-28 0 -51 -23 -51 -52c0 -12 9 -92 20 -110c16 -25 47 -25 62 0zM241 508c11 18 20 98 20 110c0 29 -23 52 -51 52c-29 0 -52 -23 -52 -52c0 -12 10 -92 21 -110c16 -25 46 -25 62 0z" />
    <glyph glyph-name="quoteleft" unicode="&#x2018;" horiz-adv-x="203" 
d="M132 651c-15 25 -46 25 -62 0c-11 -18 -20 -98 -20 -110c0 -29 23 -52 51 -52c29 0 52 23 52 52c0 12 -10 92 -21 110z" />
    <glyph glyph-name="quoteright" unicode="&#x2019;" horiz-adv-x="203" 
d="M132 508c11 18 21 98 21 110c0 29 -23 52 -52 52c-28 0 -51 -23 -51 -52c0 -12 9 -92 20 -110c16 -25 47 -25 62 0z" />
    <glyph glyph-name="quotesinglbase" unicode="&#x201a;" horiz-adv-x="203" 
d="M132 -62c11 18 21 98 21 110c0 29 -23 52 -52 52c-28 0 -51 -23 -51 -52c0 -12 9 -92 20 -110c16 -25 47 -25 62 0z" />
    <glyph glyph-name="afii57388" unicode="&#x60c;" horiz-adv-x="233" 
d="M54 43c-23 75 52 163 129 112l-12 -23c-25 7 -41 -7 -46 -22c17 -5 32 -19 38 -37c9 -30 -7 -64 -37 -71c-53 -13 -71 39 -72 41z" />
    <glyph glyph-name="uni06D4" unicode="&#x6d4;" horiz-adv-x="208" 
d="M50 100h108v-100h-108v100z" />
    <glyph glyph-name="afii57381" unicode="&#x66a;" horiz-adv-x="519" 
d="M92 72l246 501c12 25 42 35 67 23s35 -42 23 -67l-247 -501c-8 -18 -26 -28 -45 -28c-7 0 -15 2 -22 5c-24 12 -35 42 -22 67zM136 576c48 0 87 -39 87 -86c0 -48 -39 -87 -87 -87c-47 0 -86 39 -86 87c0 47 39 86 86 86zM136 526c-20 0 -36 -16 -36 -36s16 -37 36 -37
s37 17 37 37s-17 36 -37 36zM383 174c47 0 86 -39 86 -87c0 -47 -39 -86 -86 -86c-48 0 -87 39 -87 86c0 48 39 87 87 87zM383 124c-20 0 -37 -17 -37 -37s17 -36 37 -36s36 16 36 36s-16 37 -36 37z" />
    <glyph glyph-name="afii57407" unicode="&#x61f;" horiz-adv-x="444" 
d="M281 50v175c-17 -4 -36 -5 -54 -4c-50 3 -96 26 -130 64c-69 78 -61 198 17 267c38 34 87 51 138 47c50 -3 96 -26 130 -64c18 -20 16 -52 -5 -70s-52 -16 -70 4c-16 18 -38 29 -62 31c-24 1 -47 -7 -65 -23c-37 -32 -40 -89 -8 -126c16 -18 38 -29 61 -30
c24 -2 46 7 65 22l83 63v-356c0 -28 -22 -50 -50 -50s-50 22 -50 50zM332 -51c31 0 57 -26 57 -57s-26 -56 -57 -56s-56 25 -56 56s25 57 56 57z" />
    <glyph glyph-name="afii57403" unicode="&#x61b;" horiz-adv-x="236" 
d="M57 361c-23 75 52 163 129 112l-12 -23c-25 7 -41 -7 -46 -22c17 -5 32 -19 38 -37c9 -30 -7 -64 -37 -71c-53 -13 -71 39 -72 41zM110 220c34 0 59 -26 59 -61c0 -32 -25 -59 -59 -59c-33 0 -60 27 -60 59c0 35 27 61 60 61z" />
    <glyph glyph-name="space" unicode=" " horiz-adv-x="280" 
 />
    <glyph glyph-name="divide" unicode="&#xf7;" horiz-adv-x="512" 
d="M254 516c48 0 87 -39 87 -86c0 -48 -39 -87 -87 -87c-47 0 -86 39 -86 87c0 47 39 86 86 86zM254 466c-20 0 -36 -16 -36 -36s16 -37 36 -37s37 17 37 37s-17 36 -37 36zM100 307h312c29 0 50 -22 50 -50s-22 -50 -50 -50h-312c-28 0 -50 22 -50 50s22 50 50 50zM254 173
c48 0 87 -39 87 -86c0 -48 -39 -87 -87 -87c-47 0 -86 39 -86 87c0 47 39 86 86 86zM254 123c-20 0 -36 -16 -36 -36s16 -37 36 -37s37 17 37 37s-17 36 -37 36z" />
    <glyph glyph-name="equal" unicode="=" horiz-adv-x="512" 
d="M100 413h312c28 0 50 -22 50 -50c0 -27 -22 -50 -50 -50h-312c-28 0 -50 23 -50 50c0 28 22 50 50 50zM100 200h312c28 0 50 -22 50 -50s-22 -50 -50 -50h-312c-28 0 -50 22 -50 50s22 50 50 50z" />
    <glyph glyph-name="greater" unicode="&#x3e;" horiz-adv-x="576" 
d="M298 257l-220 107c-25 12 -35 42 -23 67s42 35 67 23l404 -197l-404 -196c-7 -4 -15 -5 -22 -5c-18 0 -36 10 -45 28c-12 25 -2 55 23 67z" />
    <glyph glyph-name="less" unicode="&#x3c;" horiz-adv-x="572" 
d="M50 257l404 197c25 12 55 2 67 -23s2 -55 -23 -67l-220 -107l220 -106c25 -12 35 -42 23 -67c-9 -18 -27 -28 -45 -28c-7 0 -15 1 -22 5z" />
    <glyph glyph-name="minus" unicode="&#x2212;" horiz-adv-x="512" 
d="M100 307h312c29 0 50 -22 50 -50s-22 -50 -50 -50h-312c-28 0 -50 22 -50 50s22 50 50 50z" />
    </font>
</defs>
</svg>
